<svg id="Layer_1" data-name="Layer 1" xmlns="http://www.w3.org/2000/svg" viewBox="0 0 1424.9 374.99"><title>divbot</title><path d="M1423.61,21c-8-9.32-23.07-8.18-34.49-8.94a289.11,289.11,0,0,0-29.29-.47c-7.23.26-17.69-1-22.4,5.93-1.42,2.1-2,4.64-3,7-4.91,12.11-19.73,1.5-24.28-5.32-9.48-14.17-34.7-9.81-49.49-9.39A349,349,0,0,0,1218,13.67c-14.81,2.26-26.15,7.25-39.22,14.53L1154,42c-6.09,3.39-11.43,9.58-17.8,12-7.71,3-10.87,7.91-14.13,4-1.33-1.61-22.56-12.38-24.39-12.38a3.75,3.75,0,0,1-2.24-1.41c-.92-1.1-.32-1.83,2.71-3.27,5-2.38,9.5-6.47,13.69-10,1.47-1.24,4.76-3.24,5.51-5.08,1.58-3.86-4.52-4.84-6.74-6.31-4.41-2.93-7.3-6-12.94-6.72-4.37-.57-10.38.15-13.94,3-2.94,2.37-4.1,5.08-7.87,6.72A94,94,0,0,1,1062.73,27c-19.59,5.63-31.92-4.94-45.41-6.92-1.22-.17-.65-.33,1.18-.46-4.49.32-7.6-4.94-11.63-6.24-10.09-3.24-15.8,1.57-23.36,6.93-3,2.1-6.28,2.48-9.53,3.84a64.31,64.31,0,0,0-19.9,13c-6.91,6.85-14.76,22.33-14.76,29.11,0,3.75-3.14,1.72-4.26-2.75a62.56,62.56,0,0,0-3.24-9.11c-2.53-5.45-2.82-10.92-.58-10.92a2.81,2.81,0,0,1,2.2,1.07c1,1.7,12.75,2.66,15-7.71a19.15,19.15,0,0,1,2.23-5.62c1.71-2.46,1.93-6.55.41-7.5-3.52-2.21.07-7.48-4.39-9.52a25.88,25.88,0,0,0-14.07-1.83c-6.79,1.08-8.15,6.51-9,12.42-1.12,8.19,3.29,6.67,1.85,12.09-1.75,6.56-7.78.32-10.65-2-6.84-5.59-15.1-10.09-22.38-15.06-7.59-5.17-19.61-7-28.73-7-8.65-.07-17.34,2.4-24.08,7.93-3.89,3.18-14.57,9.66-14.66,15.43s12.09,6,18.14,6.6c0,10.29-1.13,11.83,13.57,10.87,9.82-.65,17.13-3,23.51-7.65,9.94-7.2,22.48-9.15,30.9-4.81,4.37,2.25,10,7.92,10,10,0,1.93-5.39-.13-10.44-4-2.66-2-5.76-3.68-6.89-3.68-3.48,0-12.59,11-12.59,15.19,0,3.83,3.72,7.25,7.89,7.25,7.84,0,6.94,4.49,13.77,1.63a10,10,0,0,0,5.21-4.81c.79-1.78,2.17-3.24,3.06-3.24,2.14,0,9.6,6.17,9.6,7.93a17,17,0,0,0,1.75,4.86c2,3.91,3,7.65,5.32,19.11C945.06,127,929.32,64,870.46,64.78c-18.46.26-30.53,4.14-40,12.88-5.67,5.22-5.48,5.22-5.48,1.79,0-3.1-4.77-11.47-6.4-14.53,4.45-2.91,7.52-4.4,4.89-9.48-1.76-3.42-10.22-9.13-15.75-10.64a40.38,40.38,0,0,0-10.8-.51c-3.92.31-7.18.11-7.54-.47s.82-4.6,2.6-9c2.12-5.21,3-8.94,2.64-10.91-.94-4.83-2.11-9.08-7.75-10.47-9.09-2.24-9.49,6.66-15.76,9.79a42.68,42.68,0,0,0-9.31,7c-2.52,2.56-5.09,4.65-5.72,4.65-2.14,0-5.47-10.46-10.21-4.75-2.61,3.15-4.93,3.74-8.13,2.08-2.84-1.48-8.63-.33-10.68-2.44-.91-1-1.15-4.43-1.67-5.7-3.8-9.17-8.55-10.82-17.92-10.95-3.66,0-7.65.44-10.25,3-4,4-2.92,11.05-6.42,15.49a11.22,11.22,0,0,1-9.51,3.83c-4.57-.3-7.95-3.87-12.39-3.61-4,.23-4.86-.18-7.8-3.58a26,26,0,0,0-5.76-5.08c-1.1-.56-1.84-1.32-1.9-1.86a26.47,26.47,0,0,1-2.56-1.27c-2.54-1.47-3.23-4.41-5.73-5.78-3.37-1.83-9.31-1.51-13-1.25-2.35.16-4.91.66-6.4,2.48a6.56,6.56,0,0,0-1.2,5c1,8.17,8.11,15.27,8.11,23.55,0,2.54-.21,2.63-4,1.83-19.87-4.21-34.58,8.43-28.62,16.31,2.09,2.76,2.05,3-.94,6.58-5.29,6.28-.37,14.42-12.42,5.83-8.39-6-11.16-7.18-21.33-9.24-11.16-2.26-27.6-1.5-34.52,1.6-5,2.25-6.17,2-3.58-.9,2.4-2.66,2.37-2.83-2.22-11.84-3.84-7.54-7.32-12.7-15.25-8.65-2.34,1.2-4.26,2.63-4.26,3.18,0,1.57-4.25,3.47-6.13,2.74-2.93-1.12,3.56-6.72,9.93-8.57,8.73-2.54,24.11.46,25.18,1.09,1.84,1.11,16.14,10.5,19.39,12.63,19.82.46,28.28,2.36,23.69-7.3C571.73,37.08,591,50.71,591,38.87c0-4.52-6.24-9.57-9.39-12.06C579.27,25,577,24.2,574.45,23c-3.62-1.75-6.82-4.47-10.1-6.84-7.25-5.24-25-4.35-31.85,1.6C522.92,26,511,29.93,501.83,39.1c-5.39,5.62-7.36,5.64-9,.11-1.25-4.16-1.18-4.39,2-7,5.39-4.54,2.17-9.58.18-15a6.61,6.61,0,0,0-1.78-3C490.5,12,479.62,14,476.13,14c-4,0-6.64.68-8.54,4.34-2.44,4.7,1.6,9.53,2.14,14.59.47,4.47,1.77,7.78,3.62,9.18,2.06,1.58,10.79,1.82,10.79.31,0-1.07,2.64-2.94,3.66,3.43,1.12,7-2.6,9.55-6.89,20.9-1.74,4.63-3.17,5.36-3.19,1.64,0-11.38-12.62-32.62-22.33-37.76a186.67,186.67,0,0,0-18.79-8.74,22.72,22.72,0,0,1,4.92-1.23c-3.51-1.32-6.52-3.19-10.42-3-4.23.18-8.39,1.64-12.5,2.57-1.43.32-2.87.59-4.31.83-.7.64-7.57,1.74-10.61,3.67C397.07,29,385.26,29,377.84,29.2c-11,.35-21.81-1.84-32.54-3.93S324.06,22.52,313.06,22c-2.45-.06-10.14-1.25-11.24,1.93-.73,2.12,3.88,6.48,4.93,8.32,2.71,4.73,4.31,6.18,9.61,8.73,3.5,1.69,6.38,3.54,6.4,4.13s-3.45,2.64-7.72,4.56c-7.1,3.19-17.88,11.79-17.88,14.27,0,1.93-4,.84-6.44-1.77C272.23,42.49,240.45,28,215,20a190.13,190.13,0,0,0-83.94-6.84c-3.37.48-10.33.42-13.11,2.43-3,2.17-3.14,6.72-5.16,9.68-1.71,2.49-7.11,7.51-10.38,7.51-5.33,0-4,8.73-9.46.8C89.2,28.11,85.72,20.32,79.76,17c-4.17-2.3-9-3.15-13.7-3.73A153.87,153.87,0,0,0,30.75,13c-4.9.53-11.71.55-16.07,3C10.54,18.27,9,23,6.17,26.39c-8.19,9.74.36,11.44.36,19.46,0,4.79,2.19,11.73,4.54,14.37s7.17,3.88,9.15,2.23c.78-.63,4-1.52,7.25-2,9.12-1.24,12.65-6.34,20.39-8.38,8-2.11,9-9.68,13.52-9.68,9.05,0,23.11,30.63,26.83,38.87,9.05,20.09,26.75,40.62,40.66,47.17,55,25.9,54.11-24.75,53.43,23.47l4,6c5.93,8.87,12.32,10.83,14.72,4.53.9-2.39.63-3.55-1.62-6.95-4.26-6.44-3.54-7.87,2.1-4.14,4.29,2.85,5.53,2.69,7.4-.92,3.75-7.25,12-2.06,19.9-16.83,3.8-7.14,4-7.37,8.37-7.69,15.25-1.13,44.24,19.07,45,20.13,1.07,1.52,17.09,13.86,18,13.86,2.11,0,5.11,3.62,6.49,4.88,3.5,3.15,6.87,6.45,10.29,9.69,17,16.05,34.09,31.94,51.51,47.49,26.66,23.77,54.77,46.4,85.75,64.3,50.07,28.95,118.65,46.65,173.86,25.41,4.25-1.63,7.95-2.73,8.24-2.44s-.12,1.79-.91,3.33c-8.89,17.34,2,44.53,12.57,42.42,2.51-.5,3.93.16,7.91,3.66,2.67,2.35,5.5,4.27,6.3,4.27s1.46.38,1.46.85c0,2.48,15.77,5.44,28.65,1.43,3.52-1.1,6.88-1.7,7.45-1.34,1.64,1,4.5,8.62,4.5,11.93,0,4.13,6,8.76,9.61,7.91s8.55-5.71,8.57-8.43,2.5-9.95,4-11.46c.85-.86,2.36-.7,5.54.57,13,5.18,23-1.64,27.85-4.21,8-4.27,4.85-8.15,14.25-7.21,5.15.51,5.71.32,8.91-3,4.07-4.25,7.26-12.72,5-22.47-3.5-15.38-12.76-24.36.73-19C818,320.26,869.35,321.69,900,314.9c13-2.9,24.41-6.33,27-8.16a8.27,8.27,0,0,1,3.69-1.46c2.12,0,30.81-14.09,37.78-18.55,8.45-5.43,16.5-11,21.51-14,28.27-17.4,131.62-120.71,142.08-124.36,2.42-.84,23.62-22.11,57.27-26.05,1.26,3,2.6,7,6.68,11.13,7.4,7.52,16.39,15.51,18.21,16.19,1,.39,3.83-.06,6.19-1s4.54-1.45,4.86-1.14-.53,2.49-1.87,4.83c-2.08,3.61-2.23,4.51-1,6,4.81,5.8,15.06-3.21,17.08-10.73,3.79-14.06-9.69-41.83-48.24-44-6.13-.35.1-7.23-5.59-11.71-5.33-4.19-20.07,2.27-23.43,6-2.62,3-3.84,2.9-3.84-.15,0-6.06,52.62-43.06,78.43-40.4.53.06-.92,1.48-3.21,3.16-24.28,17.79-12.27,37.56-10.12,47.27.79,3.56,12.71,14,20.13,17.69,16.06,7.91,40.18,3.6,41.25,2.53a4.88,4.88,0,0,1,3-1.1c5.14,0,18.81-8.29,28-17,11.31-10.72,25.31-37.72,31.83-52a47.27,47.27,0,0,1,10.1-14.16c5.77-5.78,7.2-6.68,10.61-6.68,7.6,0,9.38,7.74,16.2,7.28,4.42-.29,3.58-.44,7,5.54,2.36,4.12,3.73,5.18,9.44,7.37,6.39,2.45,6.81,2.48,10,.77,3.91-2.11,10.23-10.91,10.23-14.26,0-1.29,1.51-4.07,3.36-6.18C1429.43,32.07,1427.73,25.82,1423.61,21ZM840.91,35.86c-6.72.38-7.37.23-7.37-1.66,0-7.49,22.24-14.58,39.8-12.67,7.44.81,10,2.75,3.61,2.75C865.44,24.28,855,35.06,840.91,35.86Zm45.41-5.17c-2.89,0-10.53,3.54-11.69,5.42-1.62,2.62,1.42,3.29,5.53,1.21a56.15,56.15,0,0,1,6.75-2.89c2.45-.76,2.51-.7.83,1a16.57,16.57,0,0,1-5.24,3c-5.51,1.92-8.12,5.26-15.62,7.63-6.14,1.93-15.61,2.81-17.52,1.62-2.37-1.48.3-4.26,9.9-10.3,10.21-6.41,13.55-7.6,23.83-8.43C894.13,28,888.84,30.69,886.32,30.69Zm12,29.74c-3,.57-1.57-3.47.75-3.91C902.08,55.94,900.66,60,898.34,60.43Zm5-9c-1.65-4.31,3.91-2.15,3.91-.62C907.26,52.63,904,53.15,903.35,51.46Zm10.12,8.87c-.86,4.49-8.07,1-4.63-1.84C910.93,56.76,913.93,57.94,913.47,60.33ZM944.66,24c3.17.83,3.66,2.31,1.54,4.65s-4.58,2.68-5.39.55C939.82,26.6,942.24,23.34,944.66,24Zm-3.42,16.12c-2.4,2.41-5.13,1.34-5.13-2C936.11,33.52,945.82,35.51,941.24,40.09ZM928.63,26.77c0-5.36,8.46-1.33,5.89,2.84-.75,1.22-4.09,1.45-5.17.37A5.85,5.85,0,0,1,928.63,26.77ZM537,25.35c2,0,3.87-.41,4.18-.92,1.08-1.74,11.32-2.18,18.52-.8C572.13,26,582.61,32.36,581,36.51c-1.23,3.21-20.27,1.16-28.28-3A69.32,69.32,0,0,0,540,28.94C532.1,27,530.74,25.35,537,25.35Zm.25,12.42c6.91,2.77,10.61,2.72,9.53-.11-.93-2.41,5.21,1.5,16.82,5.36,6,2,10.48,6,8.72,7.74-.92.92-10,1-14.16.14-8.49-1.76-24.72-15.79-29.76-14.81C519.25,37.87,516.61,29.5,537.28,37.77ZM472.93,24.28c-1.05-1.69.43-3.2,3.13-3.2s5.36,2.36,4.16,3.57S473.66,25.47,472.93,24.28Zm9.5,11.42c-1.21,2-5.79,3.15-7.14,1.81a5.56,5.56,0,0,1-.76-3.13C474.53,29.41,485.24,31.09,482.43,35.7Zm744.29,88.45c9.76,14.2,6.48,30.34,3.18,16.32-1.73-7.38-3.19-10.05-8.43-15.45-6.65-6.87-10.11-3.71-4.2,3.84,2.65,3.41,3.18,14.8-1.88,12.06-10.65-5.77-13.57-3.77-17.18-16.89a36.11,36.11,0,0,0-4.23-9.66,19,19,0,0,1-2.51-4C1191.48,108.16,1218,111.55,1226.72,124.15Zm59.85-100.3c0,2.41-1.49,2.42-5.74,0C1269.67,17.63,1286.57,17.55,1286.57,23.85ZM1143.83,55.27c.53,0,3.42-1.85,6.41-4.11,14-10.58,27.32-16.1,40.47-22.7,26.64-13.36,92-14.71,97.24,14.52-15.36-13.68-34.72-18.7-55.06-18.7-20.68,0-59.25,14.64-83,31.51-5.68,4-11.65,7.4-13.67,7.73-5.6.91-2,2.52-14.36,12.77-18.24,15.14-34,34.08-34,27.58S1140,55.3,1143.83,55.27ZM1286,74.86a17.75,17.75,0,0,1,2.21,6.22c1.92,11.43-3.8.19-3.74-5.21C1284.5,73.09,1284.61,73,1286,74.86Zm-4.84-11a1,1,0,0,1-1-1.06c0-1.07-22.19-39.17-84.41-10.4-31.42,14.53-43.38,32.23-45.38,26.15-3.1-9.39-3.46-11.13-2.62-12.7,1.31-2.44,7.27-7.33,9-7.33a4.75,4.75,0,0,0,2.86-1.78c2.11-2.58,18.74-9.43,21.23-11.5,4.42-3.67,33.06-13,43.94-14.3,9.54-1.14,28.86.38,37.3,2.94,7.23,2.2,16,6.56,17.92,8.92C1281.36,44.47,1282.46,63.81,1281.16,63.81Zm-163.6,33.42c-2.18,4.2-3.42-3.26-7.5.43-2.91,2.64-.93,2.82-3.7,5.88-4.08,4.5-8.54,13.62-9.33,19.07-.43,2.93-1.47,5.31-2.64,6-4.81,3-4-2.56-3.07-16.77,14.4-14,25-24.56,27.42-24.56C1120.1,87.32,1119.32,93.81,1117.56,97.23ZM1096.32,51c14.54,7.08,16.09,7.57,16.09,9.26,0,2.37-21.44,8.29-31.79,2.68-3.74-2-5-5.88,9.67-3,11.29,2.24,11.78,2.23,10.47-.21-1.06-2-7.66-3.86-17.2-4.91-5-.55-15.27-5-16.6-7.1S1091.24,48.5,1096.32,51Zm-33.19,5.91c-2.36-4-2-6.36.6-3.69,8.51,8.84,11.08,29.71,8.58,30.57-.6.2-3.32-1.91-6-4.71-7.56-7.78-9.55-17.87-13.81-26.18-1.57-3.06-2.18-11.18,6,5.07,4,8,7,10.32,7,5.4A16.35,16.35,0,0,0,1063.13,56.88Zm-7.85-23.48c12.14-1.52,26.85-9.12,38.42-9.12,14.58,0,16.79,2.33,8.29,8.73-6.39,4.81-10,6-25.37,8.39-13.9,2.17-12.6-.45-5.24-2.09,5.36-1.2,8.15-3.4,6.46-5.08-.36-.36-4.46.17-9.11,1.18-5.31,1.14-10,1.55-12.58,1.09C1049,35.22,1048.74,34.22,1055.28,33.4Zm-39.11-7.47c1.82-1.12,9,1.54,12.93,4.83,4.15,3.45,2.46,3.94-3.23.94a17.88,17.88,0,0,0-6-2C1017.14,29.61,1014.53,27,1016.17,25.93Zm5.42,12.24c-1.61,0-2.19-.56-1.93-1.87.47-2.46,3.39-2.46,3.87,0C1023.78,37.61,1023.2,38.17,1021.59,38.17ZM1013.24,47c.69-6,8.22-2.87,6.65,1.21-.41,1.06-1.89,1.73-3.83,1.73C1013.24,49.92,1012.94,49.6,1013.24,47Zm-5-14.84c3.81-1.46,7.52,6.19,1.32,6.9-2.64.31-2.94,0-2.94-3C1006.63,34.1,1007.29,32.51,1008.25,32.14ZM945.8,63.8c1.21-3.23,2.88-7.68,3.7-9.89,5.4-14.61,19.8-20.42,24-23.8,2.17-1.75,11.14-3.29,16.45-4.9,9.26-2.79,20.23.79,13.48,4.4a6.53,6.53,0,0,0-2.76,3.67c-.65,2.59,2,9.16,3.73,9.16.52,0,1.4,1.33,2,3,1.79,5.13,6.53,9.87,9.88,9.87,3.88,0,9.15-4.43,9.93-8.34.57-2.82,6.85-11.79,8.36-11.91.91-.07,9,12.47,10.63,16.51.72,1.76,4.08,9,7.48,16,6.56,13.63,12.74,21.39,19.13,24,13.3,5.51,5.19-20.63,7-23.56.24-.39,3,0,6.08.81a38.66,38.66,0,0,0,23-.75c20.52-7.21,1.17,4.35-17.07,22.86-9.36,9.49-10.84,10.59-14.41,10.68-3.34.1-4.23.64-5.47,3.32s-8.7,14.63-8.7,15.14c0,1.58-8.31,10.53-9.07,9.78-.41-.4-1.08-4.63-1.49-9.4-1.6-18.65-6.49-4.81-8.05-23.72-1.2-14.66-3.82-21.28-11.4-28.85-6.9-6.91-9.71-6.63-11.25,1.09-.71,3.52-2.14,4.48-2.74,1.83-.41-1.85-15.71-18.76-17-18.76-3.51,0-16.18-12.93-24.89-4.86-2.91,2.7-3.62,5.31-1.76,6.46.59.37,1.07,2.26,1.07,4.21,0,4,4.39,14.35,8.19,19.4C987.1,81.6,987,82,982.65,82c-2,0-4,.52-4.39,1.15s-.38,4.21,0,7.94c1.55,14.56,11.27,17.76,6.44,22.58-2.86,2.87-2.06,11.68,1.61,17.64,3.36,5.47,3.9,7.32,2.14,7.32-.58,0-2.55-2.65-4.38-5.89-6.09-10.79-19-20-20.88-15-.35.9-1.94,1.61-3.64,1.61-3.2,0-5.12,3-3.53,5.6,1.24,2-.13,15.77,1.56,20.94,1.59,4.82-.28,6.83-2.79,3-2.65-4,.31-4.26-1.51-6.46-1.63-2-3.6-22.47-2.83-29.5,3-27.73,16.86-23.55,19.88-45.76,1.12-8.27,1.8-12,2.32-15.14h-4c-10.71,0-21,13.22-23.2,17.41C943,74.23,943.14,70.85,945.8,63.8Zm10.06,116.47c3.1,2.57-1.59,5.23-1.59.94C954.27,179.33,954.54,179.17,955.86,180.27Zm-.5-105.1c-2-2-5.36,4.07-5.36,5.19a4.68,4.68,0,0,1-1.77,2.82c-1.61,1.34-1.7,1.11-1-2.49,1.3-6.9,4.84-13.42,9.43-17.35,6.24-5.34,7.13-5,6.74,2.34-.4,7.63-2,12.18-6.72,18.7-2,2.79-3.84,5.08-4.08,5.08-1.18,0-.18-4.85,1.79-8.72C956,77.46,956.28,76.08,955.36,75.17Zm-9.64,17.49c-1.63,2.54-1.33-.62.92-5.87C946.68,88.29,946.94,90.78,945.72,92.66ZM882,71.92c15.88,2.09,25.52,7,37.45,19.1,21.86,22.16,25,33.38,28.89,55.78,6.94,39.91-20.64,80.75-20.76,76.63s25.47-29.26,4.24-72.39c-2.12-4.31-7-17.78-2.41-17.78,5.66,0,10.83,18.77,13.37,17.87,1.81-.63,1.43-9.48-.58-13.29-8.55-16.21-12.32-20.84-22.36-27.47-13.34-8.8-31-6.57-34.76-8a4.75,4.75,0,0,1-.27-2.11c0-7,13.89-3.46,13.89-7.71S883.6,87,876,90.49c-5.89,2.73-16.66,4.42-19,3-2.63-1.65-3.3-7.21-5.74-7.21-2.64,0-2-3,1.08-5,5.42-3.55,26.44.37,18.9-5.89-2.83-2.35-15.74-1.45-27,1.9C837,79.43,848.76,67.56,882,71.92ZM656.12,226.75c-.18-4.29,103.62-1.84,104.69-1.15,2.88,1.86-2.12,2.53-19.7,2.65C740,228.26,656.24,229.77,656.12,226.75Zm58.84,14c-1.34-3.52-1.35-3.82-.14-3.82.52,0,1.27,1.26,1.65,2.8C717.43,243.53,716.32,244.28,715,240.72Zm-3.12,56.59c1.85.59,2.13,1.29,1.6,3.94-1,4.77-.33,14.73-1.45,14.71-4.17-.09-4.09-8.25-6.21-15.64C705,297.65,708.09,296.12,711.84,297.31ZM711.43,257a28,28,0,0,1,0,6.41C710.83,267.26,710.86,252.3,711.43,257Zm-96.71,13.13c-16,3.29-44.62,2.72-64.94-3.84-11.09-3.59-27.43-16.47-32.7-25.79a36.08,36.08,0,0,0-4.68-6.81c-1.95-1.62-.5-1-4.6-9.88-9.82-21.37-8.34-52.74,6.5-74.3,10.89-15.83-19,.3-18.5,41.49.09,7.6.3,15.47,2.37,22.84,2.52,9,7.3,17.73,11,26.31-2.38-2.79-5.46-5.22-7-8.6-2.84-6.17-6.76-11.52-9.09-17.91a94,94,0,0,1-5.28-24.46c-.91-11.35,1.16-21.81,6.92-34.95,10.19-23.29,7-25,16.67-30.44,3.23-1.82,6.35-3.31,7-3.31,1.78,0,1.23,3.22-1.06,6.12-4.38,5.57-1.27,7.65,4.71,3.13,4.23-3.19,12.68-6,17.92-6,7,0,1.66,2.09,6.31,7,2.13,2.26,2.15,2.49.41,5.14-2.65,4.06-2.53,1.75-5.05,4.28-5.17,5.16-14.88,7.66-22.09,19.27q-5.67,9.15-1.25,9.14c1.26,0,3.31-2,5.39-5.24,4.64-7.24,13.95-11.55,13.95-6.47,0,2.74-3.53,9.77-5.9,11.73-3.63,3-11.31,13.94-12.92,18.38-4.44,12.22-3.67,27.71,2.06,41.41,6.6,15.78,26.18,31.23,44.34,35,36.53,7.55,65.85,4.38,92.2-28.31a1.8,1.8,0,0,1,2.1-.74C665.3,237.89,643,264.26,614.72,270.09ZM651.08,258c-2,1.11-2.22,1.07-1.7-.27.86-2.26.56-.25,4.93-4.3C660,248.17,656.21,255.07,651.08,258ZM536.51,296.06c-12.26-4.74-40.32-12.69-54.57-39.36-3.79-7.08-3.72-9.87.15-6.37,4.71,4.27,50.67,27.82,69.37,33a46.28,46.28,0,0,1,8,2.73c1.07.81,34.55,3.23,46.46.18,4.39-1.12,8.53-1.83,9.19-1.58,1.48.57,1,6.52,1,8.37C649.69,291.28,577,311.67,536.51,296.06Zm68.9-16.22c-6.9,1.11-34.94,2.06-38.46,1.31-11.13-2.4-13.53-3.06-14-3.83-.3-.48-1.77-.88-3.25-.88-4.84,0-22.82-10.08-30.3-12.28-10.06-3-54.67-30.46-43.31-30.46a6.28,6.28,0,0,1,3.47,2c4.33,4.57,43.88,32.24,86.32,40.27,24.83,4.69,56.84-2.43,58.36-3.37.74-.46,1-.19.74.69C624.4,275,614.31,278.41,605.41,279.84ZM475.86,218.39c.22-3,.86-5.52,1.41-5.68s2.86,2.59,5.14,6.09a151,151,0,0,0,11.49,14.6c4,4.52,7.34,8.6,7.34,9.06,0,2.63-6.95-2.28-6.95-4.42,0-.84-1.45-1.91-3.22-2.37s-6-3.32-9.42-6.36C475.46,223.79,475.45,223.79,475.86,218.39ZM516,248.62c-1.07-.11-4.83-4-5.45-5.63C508.45,237.53,516.61,248.69,516,248.62ZM587.87,239c-.94,0-12.71-6-17.23-8.81-3-1.84-12-15.08-14.93-22-3.55-8.27-2.06-9,8-4.08,6.33,3.13,9.27,5.44,14,11,6.49,7.66,6.94,9.75,1.14,5.32-3.92-3-7-3.67-7-1.53C571.76,221.43,593.72,239,587.87,239Zm3.12,6.55c0,1.81-22.3-1.78-23.11-2.59-1.33-1.33,3-2.1,5.43-1,1.37.62,5.9,1.47,10.08,1.88S591,245.08,591,245.59Zm-30.63-9.92c7.48,4.8,3.14,6.4-4.62,1.25-3.34-2.21-29.45-24-6.28-16.16,7,2.37,10.54,4.82,10.54,7.35,0,1.3-.45,1.26-2.76-.25-2.92-1.91-5.78-1.55-5.78.73C551.46,230.37,555.25,232.39,560.36,235.67Zm18.29-27.44a135.18,135.18,0,0,0-11.28-8.55c-5.67-3.8-7.44-4.45-12.21-4.45-3.64,0-6,.56-6.9,1.59-1.68,2-.69,7.63,2.36,13.34,1.26,2.36,2,4.56,1.67,4.9s-2.95-.05-5.8-.86c-8-2.29-15.26-.35-15.32,4.09,0,3.35,15.07,19.55,24,25.75,12.34,8.54,36.65,5.52,47.89,8.46,8.08,2.12,14,1.24,28-.74L627,254c-20.07,11.09-52.18,7-63.45,3-30.71-10.92-44.66-37.29-41-59.48,3.29-20,16.31-22.18,21-40.26,3.09-11.84-4.12-8.79,2.32-14.21a27.82,27.82,0,0,0,5.63-7.27c3.21-6.3,5.29-6.84,4.15-1.07A120.46,120.46,0,0,0,554,152.37c-.89,19.23,7.61,41.4,25.82,50.57,5.68,2.87,8,5,8,7.42C587.78,213.63,583.7,212.68,578.65,208.23Zm24.08,27c1.71,11.22-4.05.47-5.05-6.89-1.53-11.37-6.57-1.72-5.79-9.62,1.54-15.46,11.29-2.62,10.52,6.63A51.61,51.61,0,0,0,602.73,235.25Zm55.61-80c-1.27-5.5.15-8.33,1.78-3.54,6.44,18.9,5.69,20.56,5.13,37.65-8.39,1.36-9.59,1.2-10.52,5.88-.51,2.54-1.21,3.23-3.26,3.23-3.35,0-8.45,4.28-10.67,9-2.34,4.93-2.32,5,2.54,11.47,3.63,4.83,4.28,6.48,4.28,10.9,0,4.07.54,8.31-14.36,14.52-4.36,1.81-8.57,3.23-9.34,3.14-5.71-.65-7.64-1.42-10.39-4.18-3.34-3.33-5.82-11.63-4.73-15.8.66-2.54-1.43-11.56-3.22-13.87-1.67-2.15,1.07-3.35,7.85-3.42C637,209.92,665,184.07,658.34,155.22Zm-37.52,24.93c-11.15,3.88-23.11-1.1-17.34-13.2,3.26-6.85-.76-6.34-15.16-6.44L588,154c-.58-12.14,3.82-16.36,10.91-10.45,4.34,3.61,4.3,4.79-.2,6-6.16,1.59-5.41,5.36,1.32,6.63,4.91.92,7.74,3.52,9.37,8.62,1.54,4.82,3.87,5.54,5.75,1.77,2.34-4.7,9.14-10.72,12.49-11.06,6.31-.64,5.93-7.27-.41-7.27-3,0-10.6-8.07-10.6-11.32s-5.45-10.13-6.22-.9c-1.24,14.89-7.66-3.61-7.66-5.2,0-4,13.75-6.64,20.88-3.93,2.44.93,2.75,1.52,2.14,4-1.92,7.78-1.88,8.5.54,10.76s2.56,2.14,5.32.51c1.61-1,3.67-1.44,4.58-1.09,2,.77,3.91,7.17,3.92,13.18,0,4.1-2.51,12.15-3.8,12.15a13.57,13.57,0,0,1-3.23-2.87c-2.23-2.42-3.09-2.71-5.44-1.87C615.93,165.83,633.38,175.77,620.82,180.15Zm-25.75-10.91c-.52,2.68-3,3-3,.44C592.06,166.64,595.53,166.9,595.07,169.24Zm16.1-19.8c1.59-2.49,5.46-.44,5.46,2.9,0,2.83-1.75,3.67-5.23,2.51C610,154.38,609.88,151.48,611.17,149.44Zm-29.12.95c-.86,9.94.26,14.78,5.07,21.74,10.76,15.62,27.56,19.49,42.67,9.83,7.36-4.71,8.79-4.84,6.61-.62-6.62,12.8-30.15,13.9-41.88,9.68-6.7-2.41-8.42-3.6-13.28-9.14-10.51-12-7.67-15.51-9.31-24.58-1-5.64,1.18-20.36,4-26.77s12.25-15.5,19.67-19.12c21.5-10.48,55.88-2.85,76.26,15.1,3.57,3.15,9.88,11.85,9.93,13.7a14.35,14.35,0,0,0,1.53,4c3.32,6.37,13.32,37.07,9.37,43.29-1.2,1.88-16.74,2.8-18.16,1.08-1.86-2.27-3.19-27.26-6.66-32.31a16.84,16.84,0,0,1-1.47-4.14c-1.4-5.84-6.47-12.67-10.31-17.18-10.92-12.83-28.64-19.27-45.13-15.43C596,123,583.41,134.56,582.05,150.39Zm95.69-42.14c-6.92-6.69-16.44-9.1-21.57-12.28-7.3-4.52-33.86-8.4-44.12-6.46-12.84,2.44-9.55-1.09-6.84-2.11,6.1-2.32,12.38-13.25,32.27-8.66,6.86,1.59,14.91,5.6,19.06,9.5,3.51,3.3,1.52.57,9.1,6,2.86,2.06,6,3.74,6.88,3.74,2.57,0,1.81,2.14,5.61,2.14,4.76,0,.75,4.36,4.27,9.38C685,113.16,682,112.35,677.74,108.25Zm32.88-5.77c20.83-.5,24.21,0,22.83,3.61-.48,1.26-4.48,1.53-22.31,1.53-21.41,0-24.93-.56-22-3.49C689.86,103.41,698.05,102.79,710.62,102.48Zm-5.3-6.54c0-1.29,4.6-8.52,5.46-8.58.68,0,6.29,8,6.29,9C717.07,97.22,705.32,97.18,705.32,95.94Zm5.59,20.41c-2.57,2.57-3.38-5.88,0-2.52C711.85,114.8,711.86,115.4,710.91,116.35ZM700.22,115c3.25.21,6.37,8.24,7,18,.48,7.67.82,8.87,2.5,8.87,8.42,0-2.18-27.78,16.15-27.78,7.06,0,9.89,5.46,9.89,19.07,0,5.86-.34,7.06-2.55,8.85-3.2,2.59-4.65,2.14-5.84-1.83-1.71-5.69-4.48-10.58-6.16-10.91-1.34-.25-1.79,1.21-2.32,7.48a38,38,0,0,1-3.9,14.47c-6.31,12.94-5.32,2.82-8.53.83-2.66-1.64-5.4-9.19-5.4-14.87,0-9.52-5.28-12.73-7.66-4.66-4.86,16.48-11.19-1.22-6.35-10.71C690,116,692.9,114.51,700.22,115Zm62.22-.87c13.75-8.24,51-17.11,70.63,1.7,21.22,20.38,13.28,56.17,4.54,64.05-4.47,4-12.44,9-14.47,9a5.16,5.16,0,0,0-3,.94c-1.37,1.26-12.82,2-18.11,1.21-10-1.56-20-9.74-23.5-19.27-2.55-6.91-3.28-7.45-1.43-7.45,4.52,0,8.75,23.07,40.36,15.39,5.74-1.4,7.73-2.49,11-6,6.35-6.89,8.75-12.87,9.19-22.8.36-8.12.16-9.08-3.37-16.09-7.64-15.17-17.38-17.85-31.18-17.88-15.24,0-26.76,4.68-38,15.53-16.08,15.49-18.79,35.48-19.68,56.81-3.21,0-17.49-.14-18.62-.84-3.77-2.32-1.44-29,8.2-39.72C745.17,137.25,739.47,127.87,762.44,114.11Zm-23.89-6.18a11.79,11.79,0,0,0,1.91-4.7c1.32-6.49,12.16-9,19.14-15.72,3.15-3,17.28-10.22,23.18-11.83,10.14-2.77,23.24.2,28.13,6.37,3.57,4.5,3.75,2.13,7,4.53,4.63,3.38-40.77-1.88-50.65,6.59A13.32,13.32,0,0,1,763,95.29c-8.51,2.38-13.19,7.09-24.31,15.82C737,112.45,736.85,109.63,738.55,107.93Zm38,99.46c-.53-2.3-1.93-4-4.5-5.34-5.27-2.83-3.59-5.35-7.23-10.29-5.72-7.78-13.57,4.77-12.13-16.21.59-8.51,4.61-22.51,8.8-30.58,2-3.94,3.71-2.59,1.83,1.49-2.7,5.83-3.71,13.61-2.43,18.66,2.92,11.58,5.61,19.45,6.91,20.22,6.17,3.63,9.44,18.82,36.18,22.76,5.17.76,9.63,1.77,9.93,2.24s-.21,2.29-1.12,4c-2.83,5.48-.74,22.05-2.75,25.8-1,1.81-2.2,2-9.88,1.9-12.83-.25-15.54-.76-20.36-3.8-8.88-5.61-9.54-8.24-4.64-18.48C777.69,214.41,777.83,213.15,776.5,207.39Zm-22.22.3c2.81-2.55,10.31-2.33,13,.37,3,3,2.73,6.23-.61,7.5-3.1,1.18-12.56,1.41-13.64.33C751.61,214.46,752.38,209.41,754.28,207.69Zm-5.74-10.4c-1.07-1.73-.37-1.91,5.16-1.28C766,197.41,749.59,199,748.54,197.29Zm46.37-62.81c-6.47-10.36,23.22-17,20.94-1.73-.8,5.34,1,7,6.52,6.17,2.54-.38,4,.2,6.61,2.63,3,2.78,3.32,3.7,3.06,8.28-.43,7.52-5.57,11.09-11.47,7.94-3.57-1.92-5.53.66-4.88,6.43s-.37,8-4.57,10.19c-3.69,1.91-5.44,1.87-11.51-.22-8.81-3-2-8.19-6-13.64-1.43-2-1.86-2-5.58-.66s-4.17,1.3-5.87-.81c-2.36-2.91-3.73-14.11-2.11-17.14,1.41-2.62,4.15-2.88,7.07-.67C792.82,145.56,798.67,140.49,794.91,134.48Zm27.29-6.27c.89-.88,3.85,1.88,3.85,3.58,0,.81-.46,1.47-1,1.47C823.75,133.26,821.38,129,822.2,128.21Zm2.4,38.5c-1.2-1.2-.73-2.46.92-2.46C828.88,164.25,826.15,168.26,824.6,166.71Zm-46.84-30.06c-1.8,1.22-3.4,4.19-5,9.35-2.35,7.45-4.39,9.86-4.36,5.16.08-11.91,19.74-29.49,22.24-27C791.32,124.89,782.5,133.45,777.76,136.65Zm-7.44,23.18c.44,3.14-1.59,5.57-2.55,3.06C766.17,158.72,769.62,154.92,770.32,159.83Zm14.34,34C762.28,177,770.49,159,770.49,167.91c0,2.72,6.52,15.8,9.89,19.84,1.47,1.77,10.41,7.83,10.41,8.7C790.79,198,789.41,197.39,784.66,193.83Zm-56.5,3.33c-.69-1.11,16.69-1.18,16.69.1S728.89,198.35,728.16,197.16Zm12,18.78a24.28,24.28,0,0,1-4,1.66,14.52,14.52,0,0,1-6.61-4c-2-2.27-1.65-6.34.77-7.93,1.77-1.16,7.91-1,8.67.25a3.48,3.48,0,0,0,2.68,1.07C746.56,207,745.49,213.41,740.16,215.94Zm-63.69-18.58c0-.9,15.46-1.79,18.7-1.07,4.22.93,33.27-2.63,31,1.11C725.31,198.73,676.47,198.69,676.47,197.36Zm41,15.46c-1.67,4.35-12.44,6.28-15.15,3.57-1.76-1.76-1.61-8.86.22-10.38s9.78-.49,14.8-.15C718.31,205.93,718.4,210.42,717.47,212.82Zm-25-1.48c0,1.58-.6,3.34-1.33,3.91-1.75,1.38-6.78,2.07-11.64,1.61-3.39-.32-4-.78-4.36-3.54-1-6.67,5-9.31,13.79-6.12C691.76,208.22,692.49,209.08,692.49,211.34Zm.67-59.65c-1.82-11.92,8.23.67,9.35,23.83.7,14.45-1.79,19.56-3,2.58S694.6,161.11,693.16,151.69Zm15.69,16c1.71-.35,1.92.33,1.75,5.84-.46,14.8-2.6,14.73-2.65,6.5C707.89,170,706.05,168.24,708.85,167.67Zm6.07,9.41a36.17,36.17,0,0,0,1.12-8c0-6.26,2.62-5.88,3.7-12.29,1.67-9.87,6.48-8.26,4-4.3-2.74,4.4-5.69,34.21-7.65,34.22C714.45,186.69,713.77,181.05,714.92,177.08ZM669,196.3c7.11,0,7.1,2.14,0,2.14S661.89,196.3,669,196.3Zm-2.35,19c-1.95,2-14.83,1.64-17.78-.42-6-4.22,1.59-11,10.81-9.61,2.76.42,5.74,1.48,6.63,2.37C668.24,209.6,668.41,213.54,666.64,215.32ZM552.33,120.2c-.29-2-1.09-2.49-5.15-2.8-11.61-.88-18,4.2-21.27,0-5.8-7.49-21.09,2.66-24.26,6.81a24.52,24.52,0,0,1-7,5.89c-9.16,4.67-5.21-.19-5.21-1.76,0-.25.72-.45,1.61-.45s1.6-.49,1.6-1.09c0-2.09,7.53-8.38,11.5-9.59,2.19-.67,4.95-1.63,6.13-2.13,15.5-6.57,18.81.74,30.45-9.53,4.3-3.79,5.52-3.93,13.56-1.6,5.44,1.58,6.24,1.58,10.58-.08A13.33,13.33,0,0,0,571.44,99c1-1.72,2.49-3.12,3.27-3.12,1.75,0,5.43-4.33,6.82-5.83,4.64,6,5.72,6.61.11,10.34-8.31,5.51-12.72,10.27-23.41,25.28C557.44,126.77,552.64,122.32,552.33,120.2Zm117.6,119.41c1.74-3.92,2.55-4.61,6.14-5.21,9.92-1.63,11,.18,4.78,8.36-6,8-8.31,10-14.53,13C649.59,263.65,664.23,252.5,669.93,239.61Zm74-4.65c6,.57,3.92,4.15,13.48,15.51,2.48,2.95,4.2,5.67,3.83,6-1.3,1.3-5.16.51-10.14-2.08C747.91,252.79,722.65,232.93,743.9,235Zm22.64,5.74c6.33,7.14,4.69,7.14,12,10.08,8.68,3.53,4.25,3.64,8.82,4.79,1.61.4,3.23,1.21,3.59,1.8.71,1.15,14.43,5.2,19.66,5.81,1.77.2,8.74.68,15.49,1.05,32.73,1.81,60.59-18,73-42.82,3.77-7.58,7.27-21.13,6.69-25.9-1.57-12.85-2-14.44-5.92-20.46-2.25-3.48-4.75-6.73-5.57-7.23-4.94-3-10.37-15.33-6.76-15.33,3.45,0,9.16,3.17,12.43,6.88,9.32,10.62,10.75-5.29-10.55-16-11.4-5.74-19.5-14.36-13.48-14.36,2.19,0,3-2.62,1.55-5.26-1.08-2-.9-2.22,1.88-2.22,4.62,0,12.71,2.71,17.45,5.84,5.62,3.72,8.68,1.8,4.49-2.83-2.5-2.76-1.16-3.48,2.74-1.46,4.35,2.24,11.86,11.83,11.86,15.14,0,2.93,2.71,4.53,4.56,2.68,2.07-2.07,2.29,7.29,6.51,13.75,4.85,7.44,8.76,24.47,7.56,32.91-2.69,18.8-19.7,50.38-24.77,56s-2-3.19,3.39-9.6c6.94-8.25,19.21-63.26-6.29-91.77-9.59-10.72-14.1-8.78-7.88-1.49,7.46,8.75,9.68,12.37,13.73,22.38,9,22.25,8.76,95.25-57.72,105-11.82,1.74-35.12,1.93-42.2.35-8.52-1.9-19.73-5.65-22.67-7.57a9.46,9.46,0,0,0-4-1.55c-3.82,0-21.18-13.75-24.53-19.42C758.46,234.83,761.77,235.34,766.54,240.7ZM909.4,112.8c0-2,.14-2,3.47-.24,3.49,1.79,23.14,14.91,14.42,14.17-5.76-.5-6-.34-6.35,6.27-.32,6-.86,5.75-2.44-1.31-1-4.39-5.62-14-7.53-15.54A5,5,0,0,1,909.4,112.8Zm36.32,106c0,7.73-1.83,5.65-11.83,15.13-2.43,2.3-13,9.44-14.06,9.44-1.7,0-.7-1.86,2.65-4.9C935.4,226.68,945.72,200.88,945.72,218.75ZM797.21,270.29c9.21.52,3.45,4.65-2.14,1.32C792.46,270.05,792.5,270,797.21,270.29Zm6,14.48c-.75-4.71-.7-4.72,8.46-2.4,8.43,2.15,37.93,3.16,50.22,1.73,28.11-3.28,66.78-25.63,66.78-26.87,0-.79,6.89-5.37,8.07-5.37.27,0,.48,1,.48,2.23s-2.06,4.24-4.56,6.68c-9.7,9.46-10.66,17.34-43.52,31-39.92,16.54-93.44,3.78-92.63,1.33C797.42,290.2,804.55,293.36,803.17,284.77ZM924.89,253C922.8,254.78,893.4,270,891.94,270a32.19,32.19,0,0,0-5.26,2c-34.95,15.73-83.59,4.46-81,1.89.8-.8,2.63-.76,6.22.15,12.94,3.26,46.31,2.32,58.51-1.66,25.06-8.17,50.64-21.82,60.07-29.43,13.73-11.07,15.25-11.92,15.25-8.48C945.72,239.46,926.93,251.15,924.89,253ZM835.2,90c2.13-3.25,4.26-3.49,5.78-.66a6.78,6.78,0,0,0,3.48,2.82c5.6,1.78,5.23,9.65,25.15,7.48,6.08-.67,6.16-.64,10.31,3.62,2.83,2.91,5.41,4.47,8,4.87,16.4,2.49,20.45,10.77,11.83,7.33-7.53-3-3.53.9-19,.41l-8.93-.28c-1.91,2.29-6.19,6.89-6.19,10,0,2.82,5.15,13,6.58,13,.49,0,.9.65.9,1.44,0,2.29,4.27,3.88,4.27,8.45,0,5.08,7,18.57,12.33,23.64,11,10.58,9.83,30.65,7.43,35.25a14.79,14.79,0,0,0-1.61,5.34c0,5.09-17.9,35.78-48.06,43-34,8.13-71.71-9.91-55.51-7.67,7.11,1,23.05.9,41.62-.2,17.84-1.06,23.84-2.55,31.71-7.91,2.46-1.67,4.92-3,5.46-3,3.86,0,18.91-23.77,19.69-24.84a2.84,2.84,0,0,0,.2-3.72c-1.73-2.73-5.43-3.2-13-1.64-12.42,2.55-8.49,4.16-8.33-11.95.06-5.92-.12-6.4-2.61-7-3.67-.9-21.54,8.84-29,24.35-3,6.17-5.22,7.83-5.22,3.82,0-2.38-4.27-6.41-4.27-8.45,0-1.38,5.65-4.74,8-4.74,1.85,0,16.75-12.13,19.54-15.91,6.17-8.35,11.24-32.61,9-43.17-2.11-10-2.85-17-7-24.26-3.65-6.47-14.27-17.72-19.71-20.88C833.74,96,832.91,93.53,835.2,90ZM824.13,221.73c-1.85-1.85-3.22,0-3.61,4.94-.51,6.27-2.6,5.91-3.36-.59s2.17-14.82,5.11-14.82c2.07,0,5.91,6.08,5.92,9.35C828.19,223.22,826.18,223.78,824.13,221.73Zm-1.84,19.45c-2,0-2,.42,1.1-5.79,1.46-2.89,2.66-5.87,2.66-6.62a2.83,2.83,0,0,1,1.24-2.12C829.39,225.35,827.17,241.18,822.29,241.18Zm22.51-21.71c-3.26,3.41-5.92,5.73-5.91,5.14.09-6,12.69-27.62,21.56-28.58,7.41-.79-2.92,20.19-7.85,27.52-5.85,8.69-18,17.92-18,14.91,0-.32,3.25-3.93,7.22-8C855.5,216.27,856.62,207.07,844.8,219.47Zm17.54,3.77c-4,2.28-4,1.64.07-3.47,4.94-6.24,17.15-8.59,18.22-7.93,1.27.79.54,6.87-1,7.91-1.65,1.16-6.78,11.52-23,18.74-6.11,2.73-21.63,6.68-7.83.15,6.39-3,16.66-10.41,18.13-13C868.7,222.53,866,221.15,862.34,223.24Zm-41-125.77c8.69,4.11,11.16,3,14.43,6.53,1.32,1.4,3,2.55,3.69,2.55,1.77,0,7.25,8.47,10.36,11.85,2.34,2.55,1.12,1.44,3.86,7.66,4,9,4.65,12.93,4.07,23.83-1.69,31.92-9.94,44.3-33.33,50-9.72,2.38-12.21,2.59-19.75,1.68-13.28-1.61-17.68-6-6.61-4.71,12.26,1.39,19.1.95,25.31-1.6,4.23-1.74,15.72-5.69,23.71-17.7,7.37-11.08,7.67-34.71,1.39-49.8-3.4-8.15-14.74-20.36-22.43-24.15-11.5-5.66-23.28-6.81-41.63-4.05-14.26,2.14-24.68,7.33-36.71,18.28-5.88,5.35-7.61,4.81-4.32-1.34,3.05-5.69,20-17.47,25.16-17.47A3.17,3.17,0,0,0,771,98C773.5,94,806.29,90.35,821.35,97.47ZM605.81,70.89A13.41,13.41,0,0,1,612,68.51c8.76-1.19,9.1-1.36,8.75-4.47-.31-2.68-.8-3-6.33-3.54-10-1.08-11.3-3.66-3.61-7.38,4.1-2,5.83-2.22,11.49-1.58,7.54.86,8.26,1.17,18,7.64,7.14,4.76,10.58,5.24,10.58,1.48,0-2.82-4.27-4.88-4.27-7.23s-6.4-6.11-6.43-8.68-7.46-19.19-7.46-21.22c0-2.28,7.08-1.62,12.59,1.17,6.09,3.09,15.19,10.92,15.19,13.06,0,2.31,2.52,1.33,4.87,5.88,1.64,3.16,5.53,4.24,6.28,1.74,1.48-5,1.66-5.18,3.43-4.19,2.89,1.62,6.75,13.76,6.77,21.31,0,7,3.2,18.13,5.62,19.66s6.06.91,7.32-1.43c4.72-8.82-7.36-27.32-7.55-36.95-.06-3.09,3.11-1,5.2,3.47,1.24,2.65,2.72,4.81,3.29,4.81,1.85,0,3.15-3.89,2.33-7-.94-3.55.65-17.57,2.22-19.49,1.28-1.58,5.1-1.8,5.1-.29,0,2.13,5.19,2.37,8.56.39s3.39-1.92,4.83,0c2.31,3.15,3,11,1.63,17.33s-1,7.9,2.19,7.9c1.47,0,2.62-1.24,3.7-4,5.85-14.89,9-4.81,5.34,3.31-4.06,8.92-4.54,15.14-6.64,19.55-1.9,4-1.23,6.46,3,11,2.62,2.81,4.23,2.72,7.17-.41,8.65-9.22-.5-36.27,10.72-42.28,6.36-3.4,1.28,14.93,4.67,14.93,2,0,5.7-4.2,7.58-8.69,3.08-7.38,18.72-20.16,24.66-20.16,4.37,0,6.94,10.84-9.84,30.16-5.8,6.68-1.52,10.36,4.58,3.92a34.11,34.11,0,0,1,9-6c5.15-2.32,6.81-2.57,13.36-2,10.44,1,15.26,2.4,16.65,5,1.76,3.29-.29,4.05-8.94,3.32-7.3-.61-7.37-.59-7,1.94.48,3.38,2.16,2.09,9.67,5.46,11.14,5,9.48,17.55,3.92,10.85-.81-1-4.52-3.14-8.25-4.81-14.94-6.71-35.81-2-51.59,11.73s-15.07,6.6-12.25,6.6c.83,0,3.59-2.35,6.14-5.21C758.29,74,761,50.68,772.51,39.84c4-3.8,4.26-5.94.66-5.94-3,0-5.71,2.35-9.44,8.26-3.84,6.08-6.06,6.13-6.06,9.27a19.55,19.55,0,0,1-2.13,6.51,22.65,22.65,0,0,0-2.14,5.22c0,1.64-15.5,39.26-33.57,25.73-8.61-6.44-2.32-46-10.77-39-1.18,1-1.61,3.58-1.61,9.8,0,9.79-2.54,23.5-5.21,28.13a19,19,0,0,1-6.06,5.6c-5.07,2.87-5.07,2.87-11.37-.16-8-3.85-7.59-3.26-16.12-22-2.32-5.11-2.58-2.55-6.39-14-3-9.21-11.42-22.85-14.66-23.88-5-1.59-5.57,1.83-1.23,7.29,3.35,4.23,3.3,5,12.93,26.89,8.68,19.73,14.43,26.59,3.09,17.38-14.12-11.46-15.63-12.1-31-13.27-9.91-.76-16.57,1.14-23.81,6.78-2.72,2.12-5.25,3.55-5.63,3.17C600.91,80.5,603.61,72.87,605.81,70.89ZM732,72.36c-1.7,2.64-1.25-3,0-3.74S733.41,70.23,732,72.36ZM604.27,97.64c1.16-.28,2.32-.53,3.5-.75a80.38,80.38,0,0,1,31.58.89,98.27,98.27,0,0,1,37.86,17.32c2,1.54,4.22,4.27,2.69,6.33a3.5,3.5,0,0,1-3.93.86,11.28,11.28,0,0,1-3.5-2.46,75.66,75.66,0,0,0-69.26-17c-9.67,2.44-16.27,6.77-23.59,13.4-11.86,10.75-14.79,26-14,41.29.72,13.4,2.54,18.06,10.81,27.64,24.1,27.91,71.63,13,72.4-24.26.15-7.19-4.55-19.61-9.54-25.24-12.49-14.07,1.06-5.37,3.09-1.57a38.16,38.16,0,0,0,4.82,6.23c8,8.42,7.35,30.14-1.22,44.75-5.38,9.16-8.35,11.4-20.48,15.46a63,63,0,0,1-24.64,3.08c-17.7-1.37-34.07-14.84-39.06-31.86-2.13-7.29-3.09-23.76-1.74-30,2.17-10.16,6.86-21.59,14.65-28.55A68.65,68.65,0,0,1,604.27,97.64Zm-84.8-32.76c-2.7,0-3.79-1.83-2.22-3.72C520.52,57.22,523.78,64.88,519.47,64.88Zm-6.49-16c1.54,0,4.35,3.31,3.7,4.36-1,1.55-4.76,1.15-5.42-.56S511.54,48.85,513,48.85Zm-10.05,11c3.12-2.29,6.32-1.38,6.32,1.8,0,2.23-.57,2.72-3.48,3C501.48,65.1,499.76,62.19,502.93,59.88Zm-16-32.27c-1.11-1.8,4.73-5.37,4.73-.6C491.62,28.68,487.85,29.16,486.89,27.61Zm-2.44,45.68c4.9-14,12.47-16.4,12.55-11.35,0,2.78,2.73,6.33,6.2,8.19,1.85,1,3.29,1,6.15.06,4.08-1.35,6.88-.8,6.78,1.33,0,.76-4.65,4.69-10.26,8.74-10.32,7.46-17.38,15.17-21.82,23.79C472.57,126.37,483.57,75.79,484.45,73.29ZM480.12,122c1.71-4.55,9.29-17.15,15.09-25.11,24.58-33.66,83.64-34.05,94.23-11.47,2,4.34,1.59,6.33-.75,3.39-3.39-4.25-9-9-12.47-10.7-3.21-1.53-16.65-4.91-20-5-19.87-.69-14.62,7.39-8.91,6.14,12.38-2.72,32.19,7.2,22.82,9.55-8.37,2.1,4.3,13.3-18,7.47-4.91-1.28-30.53-3.82-33.36,0-.84,1.15-1.16,2.44-.72,2.89,1.74,1.73,16.83.19,16.83,3,0,2-8.34,5.23-13.89,5.34A46.18,46.18,0,0,0,501,113c-8.08,4.1-10.81,6.61-16.39,15.08a71.15,71.15,0,0,0-6.7,13.1C471.91,159.05,477.93,127.86,480.12,122ZM476.75,160c1.49,0,2.41-1.45,3.66-5.75,2.93-10.06,9.77-18.36,13.34-16.16,1.47.91,1.33,4.87-.28,7.6-10.77,18.38-16.18,37.79-9.38,58,2.45,7.28,2.42,8.75-.14,5.76-3-3.5-6.24-13.58-8.36-25.92C472.51,165.6,472.79,160,476.75,160Zm-4.88-66.24c-1.3-6.38-6.05-19.69-7.6-21.32-1.14-1.19-1.78-1.27-2.74-.31s-.82,2.56.55,6.8c4.27,13.25-2.82,1.43-5-4.44-2-5.45-2.43-14.92-.64-14.92,1.95,0,10.37,7.45,12.46,11C474.81,80.69,475.63,112.12,471.87,93.73Zm-5.63,35c-.25-8.8-.4-9.35-2.58-9.35-5,0-5.45,5.8-6.6,0-.54-2.72-1.15-3.24-3.75-3.24-3.67,0-7.91,4.28-15.15,15.31-6.91,10.53-5.64,4.18-3.38,1a43.71,43.71,0,0,0,4.09-8.64c2-5.61,2-5.71-.11-7.23-1.16-.85-2.71-1.32-3.44-1-2.7,1-2.42-1.53.7-6.46,4-6.27,3.69-9,5.64-18.35.87-4.22.85-6-.08-6.89-3.93-3.93,3.14-10.66,4.55-20.32,1.65-11.28,3.82-.6,3.82,4.53,0,15.76,23.71,30,20.84,55-2.49,21.86.11,31.52-4.87,31.52-1.86,0-2-.31-1-2.23C466.26,150,466.64,143.1,466.24,128.72ZM430.33,20c.73-.73,2-.75,3.68-.06,2.43,1,2.37,1-1.1,1.1C430.38,21.05,429.57,20.73,430.33,20ZM409.84,36.7c1.83.7,3.15,4.18,2.19,5.74s-5.42,1.31-6.84-.39C402.86,39.24,406.27,35.33,409.84,36.7Zm-1.75,15.63c-.39,2.76-4.54,3.92-5.46,1.52C401.29,50.37,408.74,47.73,408.09,52.33Zm-8.81-7.15c-.78,3.1-4.32,3.53-5.83.71C390.47,40.31,401.33,37,399.28,45.18ZM310.52,29c0-1.79.89-2.13,6.41-2.44,16.66-.95,34.83,5.78,39.53,7.34-11.91-.49-13.8-.82-14.21,1.3-1.31,6.64,29.46,2.93,34.51,1.39,6.38-1.95,5.88-1.9,5.88-.6,0,.58-2.77,2.41-6.14,4.08-5.84,2.87-6.93,3-21.64,3.16C319.61,43.57,310.52,31.67,310.52,29Zm51.21,33.36c4.81-7.24,9.48-12,10-10.31,1.07,3.2-10.59,22.46-18.9,31.23-5.76,6.08-7,5.46-6.15-3,1.11-10.8,9.88-24.16,9-15.79C355.17,69.34,357.71,68.45,361.73,62.39Zm-23-13.1c9.13-.54,9.95-.44,8.68,1.1-.78.93-3.95,2.43-7.05,3.33-5.74,1.67-8.24,4.3-5.19,5.48.93.35,5.35-.61,9.83-2.13s8.31-2.61,8.51-2.41-1.22,2-3.16,4.1c-11,11.63-45.74,8.94-45.74,4.49C304.64,62,313.47,50.8,338.76,49.29Zm-25,22.94c6,1.61,16.12,1.47,23-.32,3.21-.83,6-1.38,6.14-1.21.41.41-3.62,21.51-3.72,22.08-1.1,6,7.28,4.65,18.92-7,6.32-6.32,8.68-9.87,16.25-24.44,15.74-30.28,17.11-23.2,14.37-20.17-3.37,3.73-2.2,5.76,8.84,15.42,2.86,2.49,5.65,4,7.4,4,4.75,0,9.77-5.46,9.77-10.56a14.46,14.46,0,0,1,2.13-5.68c3.92-6.44,2.05-12-4.39-13-10.73-1.72.61-5.41,14.28-4.64,12,.67,8.63,1.36,17.36,4.63,7.3,2.73,19.41,14.79,23.35,23.27,7.1,15.24-2.05,3.22-9.9-.91-6.15-3.24-4.33-6.53-10.39-5.54-2.66.43-3.87.16-4.3-1-.66-1.73-5.8-2.07-8.66-.57-7.82,4.11-12,4.26-22.39,14.73-7.46,7.51-7.94,7.8-11.78,7.21-3.65-.57-4.45-.2-9,4.11A41.31,41.31,0,0,0,384.19,81c-2.5,4.83-6.83,22.82-6.87,28.49,0,4.44-.1,4.54-3.65,4.54-4.17,0-4.92,1.23-4.92,8,0,2.56-.44,4.92-1,5.25-1.45.9-18.73-16.52-20.33-20.5-1.34-3.33-2.57-4-6.82-3.52-2.4.25-6.86-3.12-17.53-13.25C306.91,74.68,292,66.42,313.72,72.23Zm50.8,65.4c-1.77-3.31,1-2.52,1.72-.58C367.23,139.64,365.85,140.11,364.52,137.63Zm-57.9-55c1.52,1.36,24.73,21.24,24.73,25,0,1.47-1.89,1.23-2.89-.35a14.38,14.38,0,0,0-3.52-3.11c-3.95-2.59-23.11-21.17-24.52-21.17C298.23,83,279.93,59,306.62,82.64Zm23.07,48.15c-1.24.41-14.83-25.2-13.88-26.16.33-.33,3.68,2.5,7.45,6.27,6.69,6.72,6.85,7,7.2,13.19C330.67,127.86,330.36,130.56,329.69,130.79ZM304.22,97.51c-3.81-5.82-.41-8.38,3.62-2.72C312,100.63,307.08,101.87,304.22,97.51ZM186,21.44c21.24,1,33.8-.17,88.07,36.24,8.58,5.76,9.16,6.38,9.16,9.88,0,2-.17,3.73-.38,3.73a24.36,24.36,0,0,1-3.61-2.94C268,58.14,231.28,37,215.82,31.81c-24.66-8.24-48-7.31-66.84,2.67-5.18,2.75-10,5.44-10.66,6-2.63,2.12-2.53-1.32.11-3.76,1.5-1.4,2.73-3.07,2.73-3.72,0-1.65,6-3.9,8.55-6.1C150.81,25.94,166.79,20.58,186,21.44Zm77.46,59.7C242.59,61,222.64,54.33,208.05,46.5c-5.28-2.83-26-4-35-2-13.17,3-26.28,9.79-28.68,14.89-.91,1.93-1.52,2.27-2.43,1.35-2.09-2.09,2.39-6.92,2.39-10.36,0-2.05-3.1-2-3.89,0s-4.68,2.16-4.61.26c.07-2.36,24-23.68,59.52-18.37,11.76,1.76,20.7,4.5,28.69,8.78,26.76,14.34,29.62,16.63,48.44,30.7-.08,2.34-.2,14.7-1.54,15.13C270.4,87.15,267,84.53,263.5,81.14ZM229.24,67c-.46,0-4.69-1.9-21.3-9.58-5.58-2.58-20.68-4.49-29.42-3.72-47.41,4.16-35.65,53.3-7.8,49.12,13.84-2.07-11,14.68-24.09-10.43-17.17-32.82,26.27-51.13,58.88-39.94,29.15,10,61.41,36.89,62.62,40.27C270.83,100.25,233.64,67,229.24,67Zm-93,22.88c-.77,2-2.57,2.26-2.55.36,0-3.54,1.44-9.35,2.27-9.35C137,80.91,137.21,87.35,136.24,89.9Zm11.55-68.83c-12.07,8.13-13,9.34-13,4.39C134.75,20.75,137.51,21.07,147.79,21.07Zm-87,11.37c-7,2-8.82,13.21-13.69,13.21-3.8,0-2.43-4.34,2.94-9.34s5.07-7.29-.71-5.63c-6.92,2-11.8,8.16-11.8,14.93,0,3-3.06,7.5-5.08,7.53-18.23.32-19.5,3-19.5-5.85a16.8,16.8,0,0,1,7.72-14.15c10.77-7.23,1.42-9-4.88-3.52C9.93,34.76,7,33.29,12.68,28c8.55-8,33.93-6.58,32.79-4.73a3.84,3.84,0,0,1-2.84,1c-2.83,0-11.94,5.78-14.75,9.35-2.53,3.22-4.63,11.24,4.8,2.55,5.43-5,14.78-8.7,22-8.7C63.45,27.48,67.24,30.59,60.78,32.44Zm12-8.57c0,1.85-2.94,1.85-6.27,0C60.7,20.65,72.78,21,72.78,23.87ZM172.91,126.7c-20.68,7.65-44.48-7.89-46-9.28-3.51-3.16-9.28-12.68-11.55-19.08-2-5.55-2.14-7.75-1.56-20.64.68-15,1.57-19.73,5.15-27.66,1.68-3.7,1.83-4.86.75-5.53-2.75-1.71-4.94,1.23-8.14,11-7,21.17-6.63,24.46-1.09,50.55-22-29.73-23.25-47.21-38.79-63.19-11-11.31,1.72-4.75,4-1.42,2.08,3,9,4.31,3.48-6.45-2.59-5.08-2.69-7-.39-7.92C81.52,26,88.42,34,90.32,40.36c3.74,12.59-.67,29.8,5.92,30.76,2.41.35,2.47.17,1.84-5.34-1.14-10,3.54-29.87,3.54-18.71,0,5.42,1.64,4.9,3.68-1.16,2-5.89,7.92-14.37,11.83-16.93,2.51-1.65,2.86-1.65,4.64,0A7.37,7.37,0,0,0,126,30.69c7.24,0,4.11,20.47,2.79,23-10.12,19.23-1.28,16.79.56,12,1.09-2.86,4-6.07,5.49-6.07,2.17,0,1,9.63-1.63,13.64-5.56,8.42-7.62,20.81-4.62,27.71,2,4.62,8.34,12,11.8,13.82,6,3.13,8.18-.51,3.34-5.7-7.8-8.37-5.26-20.67,1.89-6.73,5.23,10.19,12.8,14.23,22,11.72,5.56-1.53,11.54-4.9,14.44-8.15,4.49-5,6.6-16.69,4.15-23C183.48,76,175.63,71.47,168.6,72.79c-5.35,1-10.08,7-8.66,11s3.49,4.15,5.23,0c4.3-10.28,14.45-2.81,14.45,3.23,0,10.84-17.66,13.32-24.23,3.4C139.47,66.37,184,49.37,195.53,80.29,199,89.43,198.29,99,193.43,111,191.76,115.08,180.05,124.06,172.91,126.7Zm56.62-9.93c-1.57,1.57-3.53,5.46-4.47,8.84-3.15,11.42-2.84,8.2-15.86,15.93a20.28,20.28,0,0,1-5.06,2.41c-1.07,0-3.24-9.28,5.22-17.16,3-2.8,3.08-6.35.13-6.35S196.06,131.65,194,137a56.14,56.14,0,0,0-2.4,10.48c-1.22,9.73-3.45,4.94-3.45-5.19,0-8,.27-9.08,3.21-13.14,4.36-6,16-13.52,24.32-15.62C228.93,110.17,234.77,111.53,229.53,116.77Zm-.14-14.36c-.52,2.45-1.27,2.88-6.13,3.53-17.9,2.37-24.73,9-22.85,4.09,4.85-12.65,4.22-36.2-9.53-46.08C188.21,62,186,60.2,186,59.87c0-1.51,16.55,1.75,23,4.53,1.76.76,5.61,2.33,8.54,3.48,11.84,4.66,38.79,23.47,41.71,29.12,2.63,5.09.37,5.81-6.73,2.12-5.67-3-7.31-3.32-13.65-3C231.29,96.42,230.53,96.92,229.39,102.41ZM636.67,301.28c-.89,2.65-25.1,10.69-37.67,12.51C562.65,319,506.94,312,480,284.6c-10-10.17-15.45-16.67-18.33-22C444,230.16,441.92,218.86,442,192c0-17.15.27-19.46,2.86-27.78,3.46-11.15,4.5-11.8,2.53-14.46-1.38-1.86-1.74-1.92-3.05-.5-2.27,2.43-6.88,20.57-8.35,32.76-2.65,22.14,1.83,35.65,3.45,43.55,2,9.9,13.27,34.76,18.57,41,1.55,1.85,2.64,3.93,2.41,4.61-1.06,3.18-33.91-33.45-33.95-42.49,0-.65-1.68-3.29-3.73-5.87-5-6.3-2.36-5.09-6.37-15.2-12.22-30.8-15.59-63.69-9.66-94.27,1.47-7.6,3.23-15.27,3.92-17,8.6-22.24,18.78-31.52,12.09-31.52-4.07,0-15.49,23.27-15.49,26a24,24,0,0,1-2.23,6c-4.68,9.69-13.68,58.89,1.36,101.57,3.78,10.75,6.59,20.29,9.74,25.38,3.5,5.66,17.57,37.17,52.41,61.67,29.1,20.46-52.56-17.25-84.22-69.42-3.29-5.43-18.71-33.66-18.71-33.66-2.45-3.67-3-6.66-7.55-16.56-7.22-15.73-9.91-34.73-14.89-34.73s-.08,7.12,7.56,30.45c8.38,25.61,28.42,58,31.24,61.63,5.73,7.3,2.44,7.09-4.72-.3-12-12.36-37.16-33.17-45.31-44.23-9.72-13.21-14.21-11.16-34.45-58.23-5.75-13.38-6.2-28.85-11.63-28.85-1.4,0-2.54.49-2.54,1.1,0,1.07,12.6,44.66,23.72,61,13,19.13-32.68-33.06-67.31-33.46-2.18,0-3.37-.52-3.11-1.27.89-2.59,18.87.93,16.48-5.28-.32-.84-2.67-2.07-5.22-2.72-4.8-1.23-12.07-7-11-8.8,2.58-4.18,18.81,3.62,29.17,14,4.07,4.08,8.17,7.42,9.12,7.42,2.6,0,2.09-3.53-1-7-3.53-4-6.88-10.44-6.88-13.22,0-2.41,2.53-2.92,4.2-.84,11.4,14.19,14,22.17,16.53,18.08.3-.49-1.17-4.21-3.27-8.28-4.3-8.35-5.7-13.18-6.45-22.16-.82-9.87-.17-11.18,5.46-10.94,2.61.11,5.48.81,6.38,1.56,4.24,3.51,12.37,23.37,14.23,34.73,1.43,8.73,7.39,10,5.59.29-1.25-6.72.59-7,4-.71,12.95,24.1,7.07,15.79,11.63,31.43a39.38,39.38,0,0,1,1.54,8.81c0,7.26,8.88,27.23,14.05,31.6,2,1.69,15.61,7.87-.31-16.29-8-12.1-12.05-33.41-5.73-19.5,2.33,5.11,4.87,7,6.3,4.73.29-.49-.46-4-1.68-7.75-1.54-4.74-2.3-10.18-2.46-17.55-.13-5.88-.56-11.71-1-13-.67-2.1-.37-2.25,4.15-2.06,5.33.22,8.54,2.83,13.19,10.71,8.95,15.17,4.14,31.95,11.3,37.9,2.64,2.19,3.29-1.32,1.72-9.24-.9-4.53-1-7.25-.31-7.94,6.05-6.06,4.62,28.76,18.47,56.87,5.66,11.49,8.86,16.26,12.07,18s6.06.22,6.06-3.32c0-2.89-6.2-16.92-8.67-19.62-2.88-3.15-1.14-3.34-3.56-7.78-4.51-8.28-9-19.66-10.13-25.81-2.54-13.63-10.92-41.13-5.45-41.13,2,0,4.27,4.46,4.29,8.61,0,4.34,2.17,7.21,4.68,6.25,1.59-.61,1.83-1.53,1.32-5.13-1.58-11.22-1.91-26.44-.71-33.37,1.57-9.05,8-22.84,10.68-22.84,3.61,0-.48,16,2.13,17.58,2.08,1.29,4.1-1.38,5.46-7.22,4.68-20,21.58-31,25.16-32.36,5.12-2,4.29-1.82,13,3.92-1.12,4.81-3,17.74-15.23,28.2-10.51,9-15.39,24.35-3.25,11C431,89.63,435,88.41,435,95.13c-.07,5.24-2.27,10.25-7.78,17.71-3.69,5-17.72,28.21-12,30.42,2.64,1,3.2.36,5.78-6.72,2.35-6.45,7.53-12.89,10.35-12.89,3.19,0,.69,8.56-5,17.15-6.37,9.6-7.59,14.92-7.67,33.6-.07,13.91.24,17,2.33,23.19,2.49,7.41,4.42,9.14,8.67,7.79,7.07-2.24-6-17.79-4.42-42.2.75-11.14,2.41-13.07,3.5-4,.82,6.84,1.79,9.38,3.56,9.38.93,0,1.51-2.86,1.9-9.35.64-10.52,2.51-16,8.82-25.71,4.23-6.53,7.41-8.36,8.69-5,.34.88,1.92,1.61,3.5,1.61,4.53,0,5.44,1.79,5.44,10.78,0,8-1.77,14.41-8.64,31.53-2.44,6.08,1.31,11.25,6,1,6.9-15.08,12-9.26,7.07.31-6.31,12.27-9,22.92-8.35,33.06.48,7.54,1.87,9.9,4.77,8.09s1.77-10.82,5-18c1.82-4.07,2-4.15,3.49-2.14,6.37,8.4-20.42,69,44.66,99.28,20.12,9.36,37,13.14,60.9,13.62,18.55.37,41.55-3.09,52-7.81,4-1.84,5.35-2,7.27-1C636,299.52,636.88,300.63,636.67,301.28Zm55.89,53.12c-2,0-10.75-4-10.75-4.9a14.25,14.25,0,0,1,2-3.45c5.94-8.49,1.08-17-1.86-23.67h2.49C694.78,322.38,705,354.69,692.56,354.4ZM700.39,324c-1.6,2.11-1.64,2.1-4-.57-4.79-5.53-4.6-18.5-8.71-17.91-1.68.24-2.25,1.24-2.51,4.39-.4,4.9-2.38,4.76-3.68-.26-.83-3.22-.59-5.08,2.07-15.84.52-2.11.18-2.4-2.77-2.4-4.14,0-3.48,1.13-5.38,6.41-3.55,9.9-3.27,22.53.57,25.71,2.14,1.78,5.05,12.36,4.26,15.5-1.27,5.08-8.26,1.64-9.66-4.76-.94-4.28-3.24-6.17-5.36-4.4-4.8,4,8.24,25,18.69,28.32,2.51.8,2.54.9.53,1.68-2.39.94-3.62.94-12.89,0-14.62-1.44-22.86-17.84-21.45-26.7,1.78-11.2-9.19-6.46-5.84,8.44,4.51,20.06-23.46-21.36,13.28-46.74,3.16-2.18,5-4.24,5-5.61,0-2.88-1.18-2.72-6.63.91-3.75,2.5-11.22,5-13.68,4.51-1.71-.31,0-2.5,3.21-4.1,6.56-3.28,5.56-8.07-4.41-4.22-4.65,1.8-18,1.18-18-.84,0-2.39,7-7.71,13.31-10.06,7.9-3,7.73-1.77,9.07-4.27s-.5-3.44-5.76-2.58c-2.4.38-3.8.18-3.8-.55,0-1.34,3.52-2,15.5-2.8a54,54,0,0,0,13.87-2.51c9.95-3.52,19.07-13.41,24.63-22.12,2.47-3.86,4.49-5.88,5.87-5.88a2,2,0,0,1,1,3.74,3.14,3.14,0,0,0-1.06,2.43c0,3.32-10.86,22.92-17.31,31.25-14.8,19.08-15.54,21.84-23.83,39,0,26.2-.59,24.76,3.74,33.19S668.2,359,670.59,358s1.95-2.82-2-8c-7.86-10.31-9.8-17.65-8.25-31.28,1.57-13.81,6.4-23,23-43.56,6.86-8.51,18-29.82,19.35-33.89,5.46-16.7,3.33,7.31,2.79,8.68-1,2.57.6,28.29,2.06,32.69,2,6.14-2.28,8.64-4.76-3.75-1.33-6.62-2.66-7.85-5.46-5.05-4.85,4.85,4.47,31.78,5.28,35.51C703.6,313.93,702.49,321.22,700.39,324Zm17.22,42.19c-5.6,6.19-18.46-3.65-4.21-3.37C719.5,362.93,720.11,363.42,717.61,366.18Zm1.78-13c-2.51,3.25-9.38,4.23-12.74,1.8-2.23-1.61-3.45-6.92-1.6-7C718.94,347.6,725,345.93,719.39,353.18Zm1.43-15.85c-2.74,5.3-7.29,7.08-13.47,2.91-4.47-3-4.88-4.89-2.4-10.91s6.26-7.37,9.15-3.56C720.69,334.46,723.56,332,720.82,337.33Zm6.55,1.61c.14-9.49.49-11.4,2.68-14.77,2.71-4.18,8-6.86,9.88-5s-4.66,10.15-5.51,17.71c-.46,4.11-.14,5,2.82,8,1.83,1.84,3.34,3.81,3.34,4.38s-1.67,1.74-3.71,2.59C728.62,355.27,727.17,353.31,727.37,338.94Zm16.51,17.95a4.5,4.5,0,0,1-3.15,2.7c-3.05.45-2-2.31,1.46-3.89C744.55,354.62,744.68,354.71,743.88,356.89Zm4.18-6.36c5.23-6.44,5.18-8.5,5.27-5.09C753.44,349.32,743.11,356.6,748.06,350.53Zm6.7-12c.91-2.41.86-3.51-.22-4.81-2.26-2.73-5-2-7.41,2.05-1.44,2.44-3,3.74-4.52,3.74-2.06,0-2.25-.42-1.69-3.87a13.37,13.37,0,0,1,2.19-5.61c1.74-1.94,5-13.57,4.12-14.5-.33-.32-.53-3.36-.46-6.74.37-16.27-12.69-22-8.34-8.83,2.28,6.89-1,13.95-2.68,6.35-1-4.33-5.81-7.88-5.84,3.72,0,4-.69,6.14-2.9,9.08-4.89,6.51-6.19,6.87-7.23,2-2-9.64-1.87-13.65.79-20.34,6.14-15.4,6.5-24.48.91-22.71-1.69.53-2.28,1.6-2.29,4.12,0,4.43-1.42,6.57-3.73,5.68-2-.75-1.88-3.49.49-14,1.26-5.63,2-20.34,1.09-22.84-.38-1.11.5-5.15,5.29,3.81,10.63,19.94,29.53,30.92,35.89,59.56C763.28,337,751.65,346.73,754.76,338.5Zm25.88-48.17a4.16,4.16,0,0,1,2.6,1.51c3.81,4.59-7.62,1.87-18.21-4.34-19-11.11-4.32,7.86,2.18,11.34,6.79,3.63,20.52,33.42,12.69,44.91-5.1,7.49-7.12,2.85-4.35-10,3.43-15.88-8.79-12.93-5.57-2.78.79,2.5-5.67,16.95-9.41,21-2.12,2.32-5.05,3.26-5,1.61,0-.44,1.66-2.88,3.67-5.42,5.8-7.29,7.43-13.65,6.59-25.76-2.18-31.69-18.94-39.14-38.58-71.07-2.3-3.74-5.91-15.18-5.06-16,1.45-1.44,3.27-.29,5.93,3.78a26.2,26.2,0,0,1,2.86,5.1c0,1.89,13.95,14.2,18.85,16.64,4.49,2.23,7.05,2.74,13.89,2.75,15.26,0,14.71,2.57,11.07,3.73-3.26,1-2.72,4.65.8,5.34,10.91,2.12,20.57,7.39,20.57,11.22,0,2.72-5.68,3.77-11.67,2.16-3.45-.93-4.89-.92-6.06.05C775.93,288.2,779.54,290.33,780.64,290.33ZM1171.27,98.68c5.89-3.39,9-3.57,10.63-.61,1,1.9.63,2.72-2.71,5.88-2.14,2-4.34,3.67-4.89,3.67-1.07,0-2.59,2.84,3,3.78,6.69,1.13,7.88,1.67,7.54,3.43-.22,1.12-2.5,2.14-6.74,3-30.93,6.52-65.17,37.83-65.17,37.83-.28,0,1.9-4,4.86-8.81,13.52-22.22,24.64-52.63,19.24-52.63-2,0-5.17,9.54-7.46,15-6.25,14.79-14,35-36.67,62.63-6.55,8-53.53,54.37-55.12,52.77-.42-.41,1.34-3.29,9.54-15.59,16.35-24.55,31.8-70.16,32.34-81.11.27-5.37-5.78-2.86-8,10.84-1,6.33-2.18,9.59-10.51,29.61-4.82,11.57-2.34,9.75-5.86,14.38-3.13,4.11-23,48.2-58.39,76.67-4.48,3.61-45.65,34.93-78.2,44.83-4.1,1.25-3.68-.54.54-2.25s13.45-7.13,16.29-9.61c7.35-6.4,12.07-4.39,32.95-28.05,3.22-3.65,32.37-33.16,44.88-69.45,12.38-35.9,12.29-70.38,5-93.15-6.17-19.2-8.82-25.57-13-31.16-7.32-9.92-8.52-6.69-2.2,5.93,11,21.91,13.62,41.76,13.43,66.37-.22,28.49-6.15,49-22.67,78.38-6.77,12.05-17.27,26.33-19.36,26.33-1,0,0-4.67,1.84-8.13,7.53-14.36,9.1-69.72,5.58-76.3a14.84,14.84,0,0,1-1.12-5.52c-.13-6.76-9-23.16-5.32-3.19,8.28,44.91-5.78,89.28-13.37,101.77-4.93,8.12-2.78,8.06-15.69,21.57-7.74,8.09-37.72,26.14-65.46,32.88-35.79,8.7-99.47-4.69-91.89-10.34,2.53-1.88,6.32-1.59,21.37,1.66,25.92,5.6,60.05,3.57,78-4.63,1.76-.81,6.87-3,11.35-4.83,35.14-14.48,62.68-53.37,52.69-81.4-2.71-7.64-2.29-22.3.66-22.3.54,0,2.15,1.8,3.59,4,2.35,3.61,3.27,8.29,3.77,19.24,0,.73,1.23,1.33,2.67,1.33,3.68,0,4.32-1.64,3.93-10.11q-.54-11.88-7.09-26.68c-1.71-3.87-2.43-7-2-8.67.48-1.91.22-2.62-1-2.62-3.19,0-3.82-6.41.78-6.41s5.44,11.75,9.35,11.75a2.89,2.89,0,0,0,2.59-1.56c.57-1.48-1.82-9.45-5.32-17.73-2-4.63-1.93-16.57-2.09-22.91,9.35-1.85,9.59-2.31,12.78.62,3.6,3.3,8.92,14.84,8.94,19.39,0,8.22,5.55,7.29,6.39,2.5.3-1.71,1.11-3.29,1.8-3.53,4.46-1.48,5.49,20.73,1.45,31.24a43,43,0,0,0-2.59,11.75c-.11,5,0,5.36,2.75,5.67,12.49,1.44,10.58-44.67,5-50.49a4.89,4.89,0,0,1-1-2.91c0-3.34-13.3-19.83-6.78-22,2.06-.68,8.6,5.88,9.28,9.31,1.3,6.48,7.72,2.1,5.14-2.86-4-7.68-3.28-9.18-12.23-18.37-7.07-7.25-8.24-9.38-8.24-15,0-3.8.31-4.34,2.43-4.34,3.74,0,10,4.86,13.13,10.16,2.82,4.81,5.38,6.11,6.46,3.28.94-2.44-1.11-5.62-15.17-23.49-6.71-8.54-7.75-12.59-10.88-23,4.29-.42,6.52-.21,7.2-3.12.31-1.35.94-2.56,1.39-2.67,2.43-.6,22.56,19.55,24.35,24.37.74,2,5.91,12.57,6.13,19.43.11,3.35,3.44,8,5.45,7.58s2-3.82.6-18.59c-.82-8.75.33-9.54,1.91-12.51,9.94,12.94,9.54,18.29,9.61,28.42.15,22.38-4.21,24.59-.72,27.14,2.55,1.86,3.48,1,4.87-4.52,3-11.79,6.32.13,3.64,13-2.43,11.61-4.84,13.31-4.84,20.55,0,6.55-.51,3.86-3.85,13.85-12,35.89-15,30.24-21.36,44.73-2.52,5.7-2.56,6.05-.74,7.43,5.14,3.9,9.28,1.33,21.07-21.54,8.4-16.3,11.07-26.26,11.29-42.12.27-19.91,7.31-23.61,6.25-3.38-.33,6.47-.18,7.12,1.71,7.12,7,0,6.57-21.66,9.79-31.71,1.59-4.94,7.62-16.9,8.53-16.9a10.61,10.61,0,0,1,2.53,1.28c4.92,3.08,7.6-9.56,9,4.88.7,7.09-.92,17.78-3.78,25-2.6,6.57,3.09,5.84,6.26-.79,2.44-5.13,3.88-4.63,3,1-.74,4.91-6.07,17-8,18.21-1.06.65-8.48,13.63-6.45,16.07,4.16,5,9.4-1.44,19.62-24.25,3-6.79,4.72-31.4,8.33-35.54a4.26,4.26,0,0,0,.88-2.43c0-2.16,5.45-9.92,7-9.92,2.25,0,2.57,4.14.83,10.5-2.33,8.53-2.31,10.34.1,10.34,9.16,0,9-39.6,19.37-53.34,1.36-1.79,1.89-1.88,4.11-.69,5,2.69,6.41-2.26,7.84,3s.6,15.65-1.71,22.7c-1.22,3.7-2,7.16-1.63,7.67,3.44,5.57,10.07-13.15,10.07-3.82,0,10.14-17.12,23.35-11.69,26.71,1.34.83,12.61-10.4,18.8-18.74C1163.1,103.93,1164.71,102.46,1171.27,98.68Zm-3.13-19.09c-9.46,7.64-14.09,10.92-15.39,10.93-2.34,0-.15-3.49,4.8-7.69,15.39-13,38.28-24.56,40.34-26,4.66-3.18,18.2-7.43,29.15-9.14,8.88-1.39,22.71-.85,26,1a60.9,60.9,0,0,0,6,2.68c5.81,2.28,15.43,9.91,16.7,13.24,7.13,18.75,2.6,20.7-4.14,27.47l2.16-4.49C1287.82,58.4,1233.53,26.8,1168.14,79.59Zm102.22,16c-.59,3.23-11.35,7.66-17.45,6-3.59-1-11.41-7.13-12.41-9.75a17.81,17.81,0,0,1-.94-5.3c0-2.49.29-2.25,2.4,1.94,1.92,3.81,3.65,5.4,8.61,7.91,6.67,3.38,6,3.42,16-.93C1270.52,93.71,1270.7,93.72,1270.36,95.55Zm82.33-54.67c-2.48.79-11.07,13.07-14.51,20.74-7.93,17.72-21.52,40.89-26.21,44.72-2.69,2.18-3.18-.21-1-4.76,9.87-20.41,4.12-59-1.85-57.83-2.08.42-2,2.79.44,13.12,3.38,14.28,2.22,53.12-26,63.4-16.24,5.93-58.46,3.84-58.46-31.35,0-10.37,1.31-14.22,6.8-20.12,8-8.55,25.48-10.12,33.13-3,4,3.77,6.36,13,4.32,17.05-2.43,4.88-5.49,7.63-9.77,8.79-5,1.34-7.47.66-11.12-3-7.6-7.59,5.51-19.06,9.35-11.77,4.06,7.7,10.34,1.43,2.66-6.25-3-3-4.41-3.63-8.35-3.63-5.89,0-12.79,3.25-15.76,7.42-13.14,18.45,17.15,54.08,42.35,20.76,4.55-6,6.56,1.52.83,9.29-8.89,12,7.56,8.52,13.71-5.34,2.71-6.09,2.85-16.77.29-20.68-4.1-6.26-7.6-23.21-4.78-23.21.63,0,2.55,1.41,4.27,3.13,2.64,2.63,3.12,4,3.12,8.58,0,6.19,2.34,8.4,5,4.76,5-6.73-8.74-30.08-8-41,.31-4.7.41-4.82,3.67-4.57,1.93.14,3.9-.42,4.67-1.34,5.38-6.49,15.07,11.37,17.52,19.06.86,2.7,4.29,1.81,4.72-1.22.28-2,.64-2.22,1.87-1.2,3.46,2.87-2.13,28.37,2.14,27.55,2.88-.56,4.69-4.88,4.71-11.24,0-9.63,4.16-26.61,7.69-31.6,3.12-4.41,9.48-5,4,6.37-1.81,3.72-2,4.94-.94,6.21,1.61,1.94,2.62,2,4.44.18,2.5-2.47,8.27-5.46,9-4.69C1357.82,35.33,1354.9,40.18,1352.69,40.88ZM1416.17,28c-6-7.5-8.25-1.81-4.24,1.83,8.59,7.83-.86,25.61-5,21.49-1-1-8.73-1.75-10.43-2-5.27-15-6.55-19.48-12.08-22.46-2.9-1.56-4.09-1.75-5-.8s-.59,2.13,1.58,5c5.5,7.21,2.82,8-5.58,1.73-3.53-2.66-7-4.34-9.05-4.44-4.64-.21-7.35-.08-7.84-1.52-.74-2.19,5.13-3.66,14.58-3.66,8.68,0,10.05.3,16.25,3.57,11.65,6.15,13.77,16,17.23,12.57,1.52-1.52-4.23-9.73-10.19-14.53-2.8-2.25-5.08-4.42-5.08-4.82,0-1.13,31-3.05,31,9.86C1422.27,32.92,1419.39,32.05,1416.17,28Z" transform="translate(-2.62 -8.87)"/><path d="M792,153.56c3.75,0,7.56,4.85,9.51,12.08,1.14,4.27,1.76,5.07,3.63,4.81,3.91-.56.85-4.62,6-12,5.78-8.4,14.41-4.61,13.71-9.5-.56-3.89-6.06-1.94-11.18-4.74-2.6-1.42-6.78-7.65-6.78-10.1,0-3.19-5.09-6.56-6.84,2.76a13.12,13.12,0,0,1-9.85,9.89C780.57,148.5,789.15,153.56,792,153.56Zm15.47-7c1.67,1.22,1.76,1.7.55,3.16-2.08,2.5-6.51,1.81-6.51-1C801.48,146.23,805.17,144.89,807.44,146.55Z" transform="translate(-2.62 -8.87)"/><path d="M219.56,89.46c-3.3,0-3.68-.24-2.55-1.59,2.57-3.1-1.79-7,2.06-7,2.75,0,3.8-1.84,2.18-3.79s-8.49-2-11.52.14c-4.14,2.9-.92,7.31-2.76,13a5.32,5.32,0,0,0-.11,3.47c.66,1.07,13.72,2.28,15.46-1C224,89.67,223.78,89.46,219.56,89.46Z" transform="translate(-2.62 -8.87)"/><path d="M1210.19,79.58c3.16.6,4.75-2.08,2.7-4.56-1.49-1.78-12.3-2.22-14.87-.59-2.16,1.37-1.92,18.5-1.41,19.57s13.25,1.08,15.67.15c.93-.35,1.69-1.86,1.69-3.34,0-2.54-.24-2.65-4.28-2-4.27.69-6.08-.85-2.58-2.19C1210.83,85.18,1204.86,78.56,1210.19,79.58Z" transform="translate(-2.62 -8.87)"/></svg>