<svg id="Layer_1" data-name="Layer 1" xmlns="http://www.w3.org/2000/svg" viewBox="0 0 1429.48 504.78"><title>divtop</title><path d="M1407.05,430.43c-13.59-6-17-.77-17-6.56,0-10.07-13.87-12.38-20.86-14.93-4.35-1.58-13.87.66-19.33,4.54-6.3,4.49-3.67.49-10.4,7-15.76,15.29,10.07-18.87-8-53.56a20.36,20.36,0,0,1-2.05-5c0-3.31-8.84-19.19-13.36-24.07-17.63-19-35.2-42.21-84.92-48.69-17-2.22-66.19.12-93.36,7.78-14.94,4.21-37.54,8.72-90,37.57-15.34,8.44-11.33,3.37-10.24-6.65.15-1.38-1.29-38.6-12.07-38.6-5.4,0-2.65,3-10.13,2.46-8.39-.66-2.83,1.54-13.68,17.74-12.92,19.28-8.84,14.58-13.08,26.75-1.14-1.23-6.12-7-7.8-7-2.7,0-17,16.36-21.52,38.6-5.64,28-16.76,39.25-13.88,32.28,3.1-7.51,4.89-15.53,4.89-21.88,0-3.9.56-7.68,1.25-8.4,1.64-1.71,2.52-6.63,7.66-20.61,14.24-38.83,5.54-43.85,39.58-63.93C1022.86,271,1017,265.63,1024,256.07c13.64-18.48-18.09-17.72-37.47.89-7.34,7.06-11,10-7.14,1.63,10.49-22.6,14.64-27.41,28.16-32.58,8.68-3.32,13.78-3.61,24.2-1.37,6,1.29,8.76,3,15.93,9.87,18.09,17.37,24.72,29.87,15.89,30-7.85.09-10.55,4.74-12,20.71-1.06,11.35-.11,13.29,8,16.39,4.5,1.71,5.7,1.2,18.66-7.88,10.65-7.47,11.89-11.14,5.86-17.36-4.82-5-7.34-11.06,1-5.19,4.83,3.4,8.92,4.59,17.36,5.05,16.22.89,62.72,17.51,93.1-10,7-6.36,8.32-8.26,8.32-12.15,0-5.39-2.64-6.82-9.15-5-6.25,1.79-5.41-1.18-12.61-1.21-10.42-.06-3.76-8.74,5.29-18.64,3.94-4.31,6.18-11.35,4.41-13.89-1.9-2.72-6.1-3.38-11.87-1.87-10.36,2.72-15.2,3.42-24.69,9.87-4.38,3-8.63,5.19-9.45,4.92-1.78-.6-5.3-10.15-5.33-14.47,0-4.8-3-10.06-5.65-10.06-10.17,0-23.32,26.6-23.32,47.18,0,14.41-1.08,16.27-9.35,16.13a41,41,0,0,1-11-1.73c-5.4-1.95-19.65-14.23-19.65-16.92,0-3.17,3.37-2.19,7.58,2.21,5,5.23,12.05,5.69,15.93,1,1.43-1.71,2.61-3.77,2.64-4.57.17-5.6,11-15.11,1.5-23.07l-4.06-3.42c-5.56,1.49-25,5.81-25,13.07,0,7.47-17.92-2.14-17.92-7.17,0-.87,3.25-3,7.23-4.78,11.55-5.1,15.6-8.9,21.18-19.89,5.1-10,5.14-10.26,2.76-13.9-2.74-4.18-3.53-3.62-15.32-2.8-.56-12,.25-12.41-4.21-15.34-3.45-2.26-3.63-2.2-8.67,2.73-2.84,2.77-6.2,5-7.46,5-6,0-19,17.17-19,25.2,0,5.71-7.63,11-28.09,19.47-8.49,3.51-8.64,3.36-9.55-9.51-1.39-19.64-11.18-37.3-20.1-36.27-3.5.41-3.65.81-4.76,12.83-4.66,50.2,6,28.38,4.16,69.12-.45,10.08-1.63,20.14-2.67,22.67-1.8,4.42-1.9,4.12-3.57-10.53-7.31-64.37-46-101.67-51-116.36-1.64-4.89-1.5-6.16,1.6-14.09,5.44-13.92,5.51-14.56,2.38-19.87-3.7-6.27-3.61-7.62.78-12.36,2.45-2.65,24.32-33.2-5-26.76-22.64,5-33.09,18.53-33.09,42.94,0,12.47-.15,12.57-11.44,7.4-19.71-9-61.54-12-83.53-.59-3.67,1.9-38.91,14.42-49.74,47.25-1.93,5.85-4.56,8,0-6.29,2.65-8.22,4.76-11.66,12-19.57,24.49-26.69,47.42-25.57,45.54-62.57q-1.5-29.28-23.89-37.46c-14.07-5.16-11-11.19-20-17.84-3.64-2.69-17.07-7.09-21.68-7.09-3.44,0-6.76-3.71-8-9-2.29-9.61-6.78-10-12.39-1.14s-7.06,10.1-12.17,10.1c-5.33,0-14.56,5.67-22.17,13.62-3,3.13-6.41,5.69-7.58,5.69-6.19,0-31.78,17.09-28.29,47.2.78,6.74,2.27,10.07,8.94,20.07,15.8,23.67,27.87,23.63,39.21,40.8,4,6,10.41,21.19,10.41,24.58,0,.59-.84,1.08-1.85,1.08s-2.55-2.33-3.4-5.17c-5.63-18.78-26.72-38-49.21-44.94-12.13-3.72-37.84-7-47.57-6-7.06.7-20.51,4.18-24.62,6.39s-7.3.86-10.9,2.69c-13.93,7-17,6.54-14.34-2.36,7.44-24.85-16.33-57.57-33.6-46.26-3.82,2.51-4.38,6.24-1.38,9.25,2.5,2.49,7.54,15.45,9.31,19.77-4.92,10.42-9.43,17.82-5.74,27.52,4.23,11.14-22.13,54.92-22.13,58.45,0,.55-1.7,4-3.78,7.72-9.21,16.4-21,58.25-21,74.46,0,6.46-2,5.81-3.75-1.21-13.95-56.13-.86-21.83.13-78.36.34-19.71.14-22-2-22.66-4.07-1.29-12.22,3.73-16.48,10.16-11.42,17.25,0,36.86-14.9,29.28-11.73-6-27.36-8.22-33.72-19.77-4.9-8.9-5.46-9.73-12.7-18.73-10-12.43-16.45-12.83-20.35-1.27-1.84,5.47-2.29,5.84-6.44,5.43-5.38-.54-9.74,2.88-9.74,7.63,0,7.28,17,26.42,26.54,29.79,3.38,1.2,3,4.61-1,8.58-9.51,9.51-8.8-6.45-20.55-6-10.8.41-7.12-8.56-18.6-1.56-4.2,2.56-4.56,3.28-3.91,7.92,2.58,18.4,5.58,23.72,13.35,23.72,4.66,0,5.75-.6,7.58-4.14,2-3.91,7.59-5.93,7.59-2.76,0,2.78-10,12.34-15.89,15.18L334.05,266c-2.63-1.31-12.7-6-14-8.5-3.34-6.38-6.61-15.13-7.43-19.86-2.94-17-16.69-27-20.06-27-11.16,0-4.28,27.54-16.25,16.12-4.68-4.47-23.3-12-29.69-12-4.57,0-9.17,2.81-9.17,5.6,0,.7,2.79,4.11,6.2,7.57,4.52,4.58,6.21,7.39,6.21,10.34,0,3.85-.3,4.06-5.86,4.08-7.84,0-29.39,5.16-15.83,15.5,4.79,3.65,32.46,16.19,35.74,16.19a5.58,5.58,0,0,1,3.4,1.46c.8.8,5.42,2.27,10.27,3.27,18.53,3.82,33.49-4.68,48.54-4.76,12.66-.07,34.34-15.46,19.59.91-7.26,8.06-6.5,12.58,2.85,17.1,3.34,1.62,6.08,3.38,6.08,3.91,0,2.18,7.78,5.4,11.4,4.7,6.42-1.22,9.1-6.7,9.56-19.55.38-10.67.21-11.48-3-14s-5.17-2.68-12-.55c-14.51,4.51,12.75-42,44.89-45.77,18.07-2.14,36.28,11.33,39.66,29.32.48,2.58.56,4.69.18,4.69,0,0-16.35-8.16-23.59-9.16-5.34-.73-6.58-.38-9.66,2.69-3.37,3.37-3.43,3.74-1.52,8.32,3.32,7.95,3.75,16.8,8.19,21.59,6.15,6.62,2.31,6.41,16.46,17.06,23.8,17.91,25.81,27.55,32.46,49.11,8.7,28.24,12,34.05,13.06,45.19.44,4.76,1.78,10.54,3,12.85s2,4.8,1.72,5.55c-.52,1.56-14.57-22.22-17-43.59-1.53-13.56-2.64-18.35-5.69-24.43-5-9.94-13-12.53-18.17-5.91-3.49,4.44-3.91,4.36-4.92-1-1.63-8.65-19.16-40.29-24.14-43.56-6.68-4.4-4.19,5.54-10,2.44-4.35-2.33-8.15-.06-11.11,6.62-7.41,16.74,4.89,53.47-9.37,38.29-5.16-5.49-13.67-9-20.23-12.33a441.18,441.18,0,0,0-41.1-18.33c-32.81-12.79-68.41-23.92-103.94-24.07-39.3-.17-80.93,15.74-105.76,47.29-11.22,14.27-18.7,31.55-22.81,49.16-2.57,11-4.68,23.74-1.8,34.89a19,19,0,0,0,2,5.22c10.71,17.57-17.38-10.83-22-10.83-1.37,0-4.07,1.24-6,2.76-6.65,5.23-15.88-.22-26.54,9.81-9.89,9.29-17.9,5.6-27.67,18.45C.88,449.69-2.25,464.55,1.7,474.08c3.18,7.69,7.91,12,16.28,12.44,2.77.15,21.3-.87,16.05-6.12-2.31-2.32-6.05-2.38-8.15-5-2.48-3.14-4.24-9-2.9-12.94-1.51,4.43,4.93,13,9.49,13,4.17,0,12.91-9.67,14.68-16.24,2.24-8.32,6.94-10.45,21.38-9.69,15.88.83,31.43,9.71,42.91,20.24,20.7,19,51.84,22.57,77.55,12.23,13.14-5.28,29.91-15.68,37.54-28,8-13,9.29-34.07,2.86-47.9-11-23.73-42.13-33.35-60-18.58-6.48,5.34-14.57,17.7-14.57,22.27,0,4.36-1.32,4.62-4.51.89-6.22-7.26-16.57,5.84-6.36-21.07,8.89-23.45,32.08-41.62,64.17-39.19,15.05,1.14,22,5,27.29,15.17,4.33,8.34,6.45,9.34,11.26,5.33,7-5.82,8.63-20.89-13.8-37.45,14.93.1,61.16,9.45,65.33,14.48,1.13,1.36,1.16,2.66.1,4.65-2,3.7-1.87,9.21.25,11.46,6,6.32,6.11,10.77.35,10.77-10.28,0-18.48,10.45-38.27,29.7-12.11,11.79-20.14,28.23-16.5,45.35A42.78,42.78,0,0,0,252.86,468c3,3.61,6.69,6.44,10.33,9.33,3.16,2.52,6.23,6.8,10,8.15a17.52,17.52,0,0,0,6.91.77c4.47-.24,15.07-1.09,14.12-7.8-.15-1,.89-2.7,3.19-6.08,12.06-17.75-21.36-1.86-10.33-15.89,3.35-4.26,3.63-12.62.61-18.46-3.65-7.06-2.2-10.89,6.29-16.59,7-4.72,19.9-9.3,21.54-7.66s-5.1,12-7.53,12c-3.14,0-5.41,6-10.59,14.48-4.15,6.77-4.3,10.5-.56,13.88,2.73,2.48,3.05,2.49,7,.22,5.72-3.28,6.81-3.06,12,2.44,4.22,4.48,5.16,4.83,12.81,4.83,16.52,0,15.15-8.06,26.16.69,3.32,2.64,7.27,4.8,8.79,4.8,9.69,0,19.56-6.47,28.35-9.87,15.42-6,31.6-8.92,48.16-7.6,33.9,2.71,64.93,17.94,96.93,27.77a230.5,230.5,0,0,0,75.21,10c11.5-.39,24.13-.63,35.09-4.19C659.52,479.28,670.5,472.49,682,467c5.1,5.12,10.43,15.53,16.79,18.45,3.14,1.45,6.7,1.66,10.16,1.69,6.71.06,14.48,1,20.85-1.62,7.7-3.16,10.09-13.05,13.74-19.92,2.35-4.42,1.53-4.62,17.22,4.22,8.18,4.62,17.36,6.52,25.52,11.11,10.67,6,25.53,5.52,37.49,5.87a246.53,246.53,0,0,0,40.91-2.25c31.52-4.39,59.68-16.85,89.09-27.79,16.19-6,36.76-10.32,49.37-10.32,39,0,42.4,15.75,64.21,19,10.08,1.49,8.61,1.46,18.11-6.88,3.78,1.78,11.66,5.82,15.87,5.82,4.68,0,13.06-3.6,15.2-6.53,1.54-2.11,2.12-2.15,5.4-.39,10.43,5.58,13.45-10.91-1.5-27.74-7.27-8.19-6.5-6.33-4.52-12,1-2.86,2.43-4.35,4.19-4.35,6.13,0,20.41,9.77,22.19,15.17.37,1.14-.58,4.55-2.12,7.58-2.9,5.74-3.76,16.75-1.74,22.41,2.53,7.1-11.06-1.67-8.29,9.36,2.85,11.34,37.07,12.86,49.24-10.8,3.46-6.74,5-21.84,2.65-26.88-6.75-14.77-13.4-24.08-19.42-27.2-7.07-3.65-12.11-9.39-13.13-14.94-.8-4.35-2.13-6-7.27-9.31-3.46-2.19-7.07-4-8-4-3.19,0-3.58-3-1.12-8.44,4-8.94-.76-5.09-.76-11.64,0-4.3,4.41-3.52,26.9-11.7,10.4-3.79,25.84-7.49,25.84-7.49,9.7-4.05-14.43,13.61-7.84,29.39,4.54,10.85,13.44,15.23,15.17,7.47,3-13.49,6.16-14.81,24.7-24.16,13.24,1.44,42.26.63,64.31,33.27,2.94,4.36,4.41,8.7,5.36,15.85,2.09,15.78,5,18.11-1.63,14.56-10.75-5.75-13.69,15.41-13.4,24.12.35,10.42-2.48,13.26-13.07,13.14-14.08-.15-20.66-4.89-22.39-16.12-2.89-18.71,15.55,15.25,33.3-12.87,5.79-9.17,3.79-18.83-5.76-27.88-7-6.61-12.3-8.27-23.66-7.34-23.49,1.9-45.21,17.49-46.92,42.34-2.15,31.38,28.6,56,57.12,59.8a98,98,0,0,0,40.53-2.81c11.67-3.47,18.56-12.73,28.68-18.93,6.2-3.8,12.23-7.67,18.87-11s10.48-4.3,19.68-4.8c18.11-1,25,2.65,25.11,13.13,0,3.93,11.08,20.38,20.18,9,3.94-4.93,5.52-3.19,3.44,3.77-2.45,8.19.4,10.67,8.63,10.67,4.87,0,7.51-3.56,9.52-7.36.89-1.69,1.66-3.44,2.44-5C1433.15,462.39,1427.27,439.38,1407.05,430.43Zm-223.88-175c10.47,2.61,8.5,6.44-6.73,13.13-9,3.93-12.06,4.56-24.4,5-11.92.42-21.18-.13-9.74-3.52C1155.21,266.2,1166.44,251.28,1183.17,255.43ZM1150,236c10.73-9.69,35.87-17.27,27.59-6.18-15.2,20.34-18.16,24.78-33.89,32.29-4.83,2.31-15.56,4.5-15.56,3.18C1128.12,263.67,1146.37,239.22,1150,236Zm-28.67,2.14a11.93,11.93,0,0,0,1.3-4.65c0-2.6,7.6-24.47,12.19-9.17,2.4,8,2,11.83-2.36,21.24-2.18,4.73-6.18,10.7-8.9,13.28l-4.94,4.69C1118.89,258.79,1119.7,241.12,1121.31,238.1Zm-46.15,42c2.57-1,5.39,1.46,4.09,3.56C1076.52,288.06,1070.93,281.7,1075.16,280.07Zm20.29-48c-.48,2.4-4.55,2.38-4.55,0C1090.9,228.76,1095.77,230.48,1095.45,232.07ZM1086,243.56c1.72-.31,2.89.4,3.2,1.93.56,2.71-4.39,3.49-6,.95C1082.14,244.62,1082.58,244.16,1086,243.56Zm-23.33,29.11c2.43-2,5.74.13,4.15,2.69C1065.45,277.62,1056.61,277.72,1062.69,272.67Zm3.11,20.46c-6.13,6.14-10.13-6.62-1.83-6.62C1067.78,286.51,1068.79,290.14,1065.8,293.13Zm.28-94.86c-.76,0-1.38-.91-1.38-2,0-2.28,5.77-4.2,9-3,3,1.16,2.57,3.7-2,10.9-8,12.66-37,20.79-18.8,10.11C1071.83,203.16,1067.46,198.27,1066.08,198.27ZM1033,213.44c.81-1.52,2.26-2.76,3.23-2.76,3.42,0,20.86-20.68,11.09-20.68-5.89,0,6.69-6.89,10-6.89,6.58,0-6.86,23.3-17,29.4C1033,217,1031,217.22,1033,213.44ZM998.52,264c0-1.89-4.5-.86-8.42,1.93-15.52,11.05,5.42-15.28,24.43-15.28,3,0,3.06.29,1.62,4.48-7.84,22.84-21.44,21-33.17,31.28-2.65,2.32-5.19,4.22-5.66,4.22C971.11,290.65,998.52,266.34,998.52,264Zm-13.76-38.8c2.45,7-5,12.48-1.84.71C983.74,222.85,983.9,222.78,984.76,225.21ZM977,189c1.82.59,6.58,14.63,5.53,16.32-2,3.18-5.64-2.1-4.17,6.37,1.42,8.15,4.17,30.69-1.63,24.89-2.23-2.23-.91-3.78-3.27-12.6C971.54,216.76,974.43,188.18,977,189ZM335.37,228.6c3.66,0,3.66,4.14,0,4.14S331.72,228.6,335.37,228.6Zm2.93,18.92c-2.44-2.44-1.81-5.13,1.21-5.13,3.4,0,2.43.3,3.52,3.16C344,248.07,340.37,249.59,338.3,247.52Zm11.48-11.3c-2.33-1.77-2.41-2.23-.62-3.43,2.89-1.94,4.09-1.76,5,.73C355.52,236.92,352.84,238.55,349.78,236.22ZM275.4,272.06c-26.63-8.57-11.61-4.44-40-19.21,18.28-2.92,18-3.77,29.65,6,5.38,4.5,11.92,8.9,14.55,9.76C288.73,271.62,280.31,273.64,275.4,272.06Zm-21.23-38.12a20.28,20.28,0,0,0-4.29-7.42c-5.75-5.2,1.43-6.47,11.7-2.07,7.33,3.15,19.58,13,20.75,16.66,1.12,3.53,24.09,25.76,24.09,27.59C306.42,273,263.17,261.7,254.17,233.94Zm60.28,28.46c-.91.91-11.05-6.23-14.58-10.26-5.1-5.82-9-15.45-9.69-23.7-.66-8.41.51-10.27,5.65-9,9.39,2.35,10.34,23.46,16.22,36C313.7,258.93,314.78,262.07,314.45,262.4Zm39.44,21.51c-1.82,2.94-8.2,0-4.94-3.25C350.67,278.94,355.14,281.88,353.89,283.91ZM365.36,273c4.91.94,1.24,7.06-1.47,4.36C362,275.45,363,272.53,365.36,273Zm2.41,17c0,3.29-5,4.48-7.28,1.74C356.28,286.63,367.77,284.32,367.77,290Zm-5.43-83.77c-3.88.28-5.26-.4-7.68-3.8-6.17-8.66,1-13.34,8.33-5.45C367.84,202.13,369.27,205.7,362.34,206.19Zm13.71,11.39c-1.13-1.82,4.82-1.84,4.82,0S377.19,219.43,376.05,217.58Zm-4.23-18.64c-3.32-5.66-4.64-16.26-2.21-17.75,1.75-1.09,9.54,4.94,11.27,8.72,2.59,5.65,13.17,16.64,8.54,16.64-2.23,0-3.5-4-5-1.5s8.89,6.46,8.89,7.84C393.28,215,378.74,210.74,371.82,198.94Zm72.77,21.5c-1.58,4.24-1.69,3.48-1-7.51,1.63-26.56,13.76-29.72,9.67,9.68-.48,4.67-1.79,9.63-2.91,11-1.82,2.29-2,1.47-1.6-8.14C449.2,214,447.68,212.17,444.59,220.44Zm15.52,91.32c-3.5-6.53-11.7-15-21.52-22.17-11.07-8.11-15.28-14.16-19.25-27.66-1.48-5-1.45-6.16.22-7.21,4.16-2.63,15.83,1.63,25.15,9.18,3.14,2.55,10.61,16.67,10.61,20.07,0,.69-2.94-1.56-6.52-5-6.12-5.85-11.4-8.09-11.4-4.81,0,.79,3.25,4.67,7.24,8.62a78,78,0,0,1,11.89,16.14c6.54,12.59,8.44,12.52,8.44,15.62C465,318.3,463,317.18,460.11,311.76Zm-198,158.41c-3.72-1.51-8.15-9.16-10.55-18.25-2.71-10.23,1.43-30.16,7.94-38.21,3.65-4.5,27.28-24.49,19.21-10.81-1.7,2.88-3.09,8.4-3.58,14.21-.75,9-.52,10,4.24,19.21,5.38,10.41,5.41,14.25.08,14.25-2.16,0-3.83-1.25-5-3.79-2.44-5.11-7.59-5.85-8.75-1.25-1.53,6.11,7.43,18.7,16,22.48C296.37,474.49,275.23,475.48,262.13,470.17ZM1107,315.52c3.61-.07,57.73-25.75,123.18-18,42.85,5,56.43,19.22,71.69,34.87s20.57,25.78,25.59,49.3c1.7,8,2.64,14.95,2.1,15.53-1.68,1.8-2.88-.59-2.89-5.76-.07-21.83-28.06-83.8-95.9-90.93-14.22-1.5-54.47-.75-60.57,1.11a84.38,84.38,0,0,1-10.34,2.16c-14.42,2.05-26.76,5.1-44.45,11C1076.88,327.52,1104.43,315.57,1107,315.52ZM1038.8,347c1.21-3.6,59.35-30.57,47.27-21.3a11.54,11.54,0,0,1-4.82,2.25c-2.16.14-26.66,13.58-30.46,15.88C1043,348.57,1037.82,349.92,1038.8,347ZM934.91,202.41c6.93,11.24,16.74,36.06,16.74,42.32a7,7,0,0,0,1.14,3.93c2.78,3.19,4.5,21.19,4.6,48.19.26,70.39-23,82.61-15.39,65,2.79-6.41,7.48-29.55,9-44.36,3.12-30.68-3-71.19-13.45-89.62-2.16-3.79-5.07-9.37-6.48-12.4-9.43-20.35-49.64-48.95-62.16-48.95-4.86,0-2.89,3.94,3.34,6.69C880.43,176.88,900,190,907,196.45c11.19,10.47,26.77,33.68,26.77,39.89a26.65,26.65,0,0,0,2,7.88c9.45,22.61,8.4,42.58,8.3,54.32-.44,50.17-4.79,43-4.82,28.25,0-10.57-4.25-24-9.77-30.89-6.19-7.8-6.69-24.1,6.08-3.53,2.64,4.25,6.44,5.07,6.41,1.38-.06-6.6-7.63-20.58-15-27.75-9.13-8.84-23.29-7-25.86-22.77-.76-4.67-.58-5,2.87-5,5.35,0,16,5.87,21,11.58,7.6,8.64,13,5.66,7.64-4.23-2.9-5.37-18-22.52-19.88-22.52-.74,0-3.07-1.23-5.18-2.73-4.82-3.43-17.53-6.93-28.25-7.77-14.32-1.13-25.26-10.1-20-16.41,2.32-2.78,5.88-1.84,23.42-.38,6.76.57,6.38-3-.69-6.37-7.48-3.58-9.61-4.94-13-4.94-4.42,0-19.79-4.29-25.16-7-4.68-2.37-5.07-3.07-5.61-9.83-.32-4,0-7.9.62-8.66,1.2-1.38,23.58-2.87,32.35,1.51,6.8,3.4,10.45,2.37,7.65-2.16-1.58-2.55-1.4-2.8,2.07-2.79,2.67,0,7.7,3.13,16.9,10.5C926.36,188.86,915.64,171.11,934.91,202.41ZM935.2,360c-.21-3.64,3-15.58,4.16-15.58a1.12,1.12,0,0,1,1.22,1C940.5,347.52,935.3,361.6,935.2,360Zm-78.64-63.16c-5.75,3.55,15.23,20.77,19.24,31.37,3.33,8.82,13.43,22.13,10.84,53.62-1.27,15.51-3.8,23.79-10.21,33.48-17.15,25.87-34,37.6-58.51,40.75a124.35,124.35,0,0,1-12.41,1.18c-22.3-1.61-27-2.52-35.55-6.86-8-4-16.37-9.21-20.88-17.12-5-8.71-7.77-18.82-6.87-28.88,1.08-12.11,8-23.92,18.83-29.45s25.37-3.74,33.54,5.27c-10.45-6.77-25.34-4.89-34.58,3.47s-12.7,22.15-9.67,34.23,12,22.25,23.13,27.91c20.85,10.63,50.88-9.81,47.95-33.25-.88-7-.73-7.68,1.56-7.25,3.46.64,8.85,11.89,7.92,16.53-2,9.85,14.62,6.94,1.32-25.68-3.1-7.61-5.26-15.5-5.68-20.74-.64-7.93-.45-8.65,3-11.38,13.35-10.5,18.47,21.74,24.29,21.74a4.36,4.36,0,0,0,3.38-1.4c4.48-7.25,2.52,16.72,4,19.12,3.67,5.94,17.19-4.63,11.26-28.25-3.31-13.18-6.31-18.17-16.93-28.14-26-24.39-6.79-27.72,3.42-13.85,3,4,7.58,5.62,9.11,3.14.85-1.37-7-15.27-19.55-24.3-6.94-5-11.37-11.73-11.27-17.13.09-4.38,6.4-9.83,11.39-9.83,6.87,0,21.42,7.84,28.65,15.43,7.43,7.81,11.72,8.85,10.46,2.55-1.14-5.71,1.53-6.71,5.3-2,6,7.49,8.27,17.61,8.27,36.39,0,16.69.09,17.25,3,17.67,2.48.35,3.18-.43,3.92-4.37,1-5.41,5.57-11.07,7.8-9.69,1.74,1.08,2.41,22.1-9.19,35-8.54,9.5-17.36,40.38-13.26,14C902.73,331.4,858.47,295.64,856.56,296.83ZM568,304c-2.81-7.32-21.55,9.55-31.38,37.52-4,11.4-3.55,39.19.94,56.66,1.19,4.62-.21,3.1-9.64-10.52-4.27-6.16-7.77-12.09-7.77-13.16a5.58,5.58,0,0,0-1.43-3.39c-2.14-2.14-3.46-24.69-1.52-25.89,1-.6,1.57.06,1.57,1.7,0,3.17,3.41,6.37,5.45,5.11.79-.48,1.45-5.35,1.45-10.8,0-17.17,3.83-21.6,7-32,3.62-11.86,8.94-15.83,7.4-5.52-.77,5.11-.55,6.21,1.23,6.21,1.19,0,3.27-1.63,4.63-3.62,10.59-15.44,31.67-22.14,33.05-21.61.94.36,3,2.87,4.61,5.58,2.26,3.84,2.7,6.14,2,10.43-1.74,10.35-26,27.11-25.17,33.08.64,4.44,5,4.65,6.62.31,1.47-3.88,12.46-17.1,12.41-5.91,0,11.9-34.08,34.3-25.69,66.43,3.1,11.87,7.68,15.85,12.58,10.95,1.63-1.62,2-3.42,1.27-6.55-1.37-6.06-.83-21.21.88-24.39,2.32-4.35,4.53-3.2,3.69,1.93-1.73,10.74,5.51,8,6.7,4.05,1.14-3.79,7.64-15.95,10-18.64,5.84-6.76,4.55,3.6,9.56,5.45,13.12,4.84-11.72,23.43-6.43,47,2,9,5,14,8.37,14,4.26,0,1.57-1.51.25-13.82-.55-5.1-.15-6.7,2.23-8.86,8.59-7.77,2.11,9.91,3.56,15.74,1.56,6.3,7.89,14.74,14.33,19.11,11.93,8.11,31.2,7.29,41.8-1.79,15.2-13,21-32.45,14-46.49-2.71-5.39-16-13.74-23.09-14.54-5.19-.59-6.54-.12-11,3.8-5.57,4.9-7.69,4.64-5.29-.64,8-17.44,49.92-11.4,49.92,29.6,0,23.5-17.71,41.94-37.81,45.57-3.85.7-9.48,1.76-12.51,2.36-6.92,1.37-27.76-1.24-37.91-4.74C582,448,563.27,433.3,556.05,420.16c-12.29-22.35-13.73-27.13-14.79-48.87-1.69-34.83,13.51-56.91,25-63.5C568,306.85,568.55,305.49,568,304Zm-58-29.92c5.17-5.1,14-13,18.44-22.44,5.56-11.72,8.81-11.52,12.49-18.42,4.29-8,38.45-21.94,38.45-15.65,0,1.87-1.07.54-4.85,3.3-5.35,3.91,4.16,5.17-2.31,7-10.76,3.1-19.92,9.4-31.72,21.8-25.31,26.59-17.82,64-21.13,80.23-.31,1.52-2.7,4.44-5.3,6.5-6.23,4.93-6.51,4.17-7.36-20.29l-.67-19.3,9-13.4Zm28-49.27c.07-3.23,9-9.36,10.39-7.13,1.17,1.89.84,1.54-4.42,5.17C539.42,226,538,226.49,538.06,224.81ZM516.71,381.64c11.75,18.84-3.78,12.41-11.7-9.65-9.89-27.56-7.54-23.7-10.51-46.39-1.9-14.48,3.59-42.7,3.54-10.48C498,337.74,508.14,367.9,516.71,381.64Zm-4.45,14.76c.33-.91,1.43.2,2.44,2.47,3.33,7.51,5.3,7.7,8.76,19,1.33,4.36,2.93,7.93,3.53,7.93,2.3,0,4.72,10.56-1.07,1.1C520.81,418.52,511.65,398.09,512.26,396.4Zm149-4.38c-2.61-3.83-2.3-5.17.74-3.27,8.26,5.16,15.72,33.28-6,45.81-3.88,2.24-28.25,11.76-39.26-7.61-3.34-5.87-3.63-9.86-.88-12.14,1.57-1.31,2.27-1.09,3.42,1.07,2.93,5.47,18.87,8.67,28.9,5.79C660.7,418.08,667.88,401.78,661.22,392Zm-46-23.78c-3.91,5-6.77,22.31-10.52,25.15-5.39,4.08-6.07,2.12-1.4-4,4.12-5.43,6.29-12.09,6.74-20.75.33-6.25,0-7-3.43-8.69-2.81-1.38-3.79-2.87-3.79-5.77,0-7.24-6.29-6.55-17.9,2-8.71,6.4-10.61,5-15.53,6.94-11.53,4.59,22.27-26.71,18.23-40.83-1-3.38-.55-6,2-12.09,7.59-18.45,8.83-26.38,4.13-26.38-4.46,0-6.5-12.24-23.28-4.14-8.55,4.13-5.61,1.5-12.57,6.23-12,8.16-12.4-4.14-23.61,7.53-3.06,3.18-5.89,5.25-6.29,4.61-1.2-2,1.49-13.67,5.41-23.54,7.16-18,16.09-27.94,32.65-36.23,9.65-4.83,12.07-5.47,20.69-5.47s10.19.41,13.55,3.63c3.86,3.7,8.09,3.72,8.09,0,0-11.63-13.63-17-21.82-23.39-3.78-2.95-6.21-3.79-10.13-3.5-2.84.2-5.49,0-5.89-.36s1.44-2.82,4.08-5.38c9.47-9.18.28-11.19,9.39-16.57,5.36-3.16,13.34-13.68,13.34-17.59,0-11,26.62-3.68,34.48,2.81,3.33,2.75,7.07,9.26,6.16,10.73S625.91,190,623.89,190c-1.62,0-13.51,12.46-15.37,16.11-2.14,4.18-1.93,16.14.37,21.65,2.09,5,12.3,15.52,16.28,16.79,3.14,1,3.63,12.66.58,13.82-2.66,1-18.66-10-23.67-11.87-14.18-5.39-9.47,32.18,17.22,53.58,3.16,2.53,5.52,5.27,5.25,6.08s-3.52,2.36-7.23,3.44c-15.9,4.64-28.57,18.27-8.12,18.27,10.53,0,20.2,8.13,39.3,1.89,8.92-2.92,20.67-1.94,28.1,2.35,7.63,4.41,23.45,18.48,26.73,23.77,2,3.31,3,8.63,4.07,21.63,3.09,39.06-1,3.43-12.13-7.9-5.58-5.67-23.54-16.92-27-16.92a62.11,62.11,0,0,1-10.13-1.61C644.16,347.86,625.35,355.38,615.24,368.24Zm30.35-187.89c-5.78-15.18-29.6-25-37.56-22.95-2.09.54-4.85-.41-8.5-2.94-7.64-5.29-14.51-4.18-34.6-1.73,33.35-15.23,90.83-11.43,104.91,27.16,5.63,15.47,3.45,37-9.13,45.61-5.31,3.66-10,3-14.44,2.88,5-2.21,15.85-5.64,15.85-19.56C662.12,192.75,650.08,192.15,645.59,180.35Zm53.25,111.38c-.69,1.11-2.73.34-6.65-2.5-23.14-16.76-15,29.33-14.35,30.71.78,1.69.54,2.42-.81,2.42-2.68,0-12.76-10.86-14.72-15.86-4.63-11.86-1.49-33.1-12.21-47.16-7.36-9.64,1.79-8.68,8.89-8.68l1.54,7.68c4.72,23.5,28.6,24.84,37.33,18.38,2.32-1.71,4.5-2.82,4.86-2.46C703.48,275,700.29,289.39,698.84,291.73Zm4.63,48.52a9.21,9.21,0,0,1,1.14,5c-.69,3.27-13.91-12.88-17.61-21.5-4.33-10.09-5.67-28.09-2.18-29.42,2.95-1.14,10.39,6,10.39,9.93,0,1.53.62,3.17,1.38,3.64s1.38,3.89,1.38,7.6C698,322.53,700.79,335.25,703.47,340.25ZM650,322.93c-14.87,2.52-29.55,1.43-36.22-2.69-4.54-2.81,14.45-7.95,27-7.31C656.93,313.74,663.31,320.68,650,322.93Zm1.83-27.8c.47,5.12.59,9.3.27,9.3-4.87,0-24.75-46.87-14.13-46.87C645.06,257.56,649.49,269.58,651.84,295.13Zm-15.91,8.78c-6-1.88-24.46-20.22-28.07-27.84-1.41-3-3-6.36-3.62-7.53-2.12-4.27-2.94-10.72-1.47-11.63,2.38-1.47,13.85,5,18.52,10.48a86.65,86.65,0,0,1,9,14.49C641.84,305.26,650.5,308.49,635.93,303.91ZM709,336.36c-3.32-10.59-3.8-37.23-.85-47.09,2.51-8.41.13-9.66,2.48-9.64,1,0,3.39,4.2,5.28,9.31,5.12,13.78,4.1,41.56.7,51.34-3,8.63-4.82,11.46-4.85,7.51C711.73,346.31,710.49,341.17,709,336.36Zm-.05,99.93c-1.29,3.37-5.49,4.57-5.39,1.53.1-2.68,3.39-14.59,4.29-15.48C709.25,420.91,710.2,432.93,708.93,436.29Zm-2,21.15c-1.17,3.7,2.93,7.29,6.28,5.5,2.44-1.31,3.3-3.31,4.34-10.15.6-3.89,4.5-5.91,7.16-3.7,2,1.62,1.9,2.17-.57,5.64-4.25,6-1.26,6.37-5.93,10.77-7.59,7.13-15-.45-15.38-5a30.07,30.07,0,0,0-2-6.95C696.09,442.14,710.43,446.45,706.94,457.44Zm12.18-37.2c.68,2.12,3.28,12.05,4.62,17.58.63,2.62.18,3.1-2.86,3.1-4.92,0-3.07-1.49-4.44-12.79C715.76,422.54,717.88,416.32,719.12,420.24Zm3.46-33.09c-5.94,14.85-6.69,14.67-6.69-1.64,0-29.66,7.55-26.4,24.12-41.55,1.52-1.4,6.94-5.35,12-8.79,11.76-7.92,17.7-8.78,31.43-4.53,22.29,6.9,31.58-2.58,40.19-4.64,5.19-1.25,9.83-8.12-6.67-15.49-3.91-1.74-7.53-3.85-8-4.68s3.11-5.79,8.07-11c17-18,8.48-19.63,14.67-37.23,3.27-9.31,3.39-11.87.58-12.95-5.71-2.19-15.29,1.3-22.71,8.27-4.94,4.63-6.48,4.16-8.28-2.51-1.45-5.39-1.33-6,1.67-8.36,16.19-12.8,21.54-24.61,17.15-37.84-4.12-12.41-15.62-22.33-26-22.41-9.09-.07-1.19-11.06,10.44-14.51,7.64-2.27,21.21-2.72,24.23-.8,1.19.75,1.61,2.41,1.1,4.34C826.55,183.6,856,185.86,848,193.89c-1.32,1.32-1.11,2.75,1,6.68,4,7.44,2.15,3.43-6.46,11.67s-19.18,9.65-21.24,20c-1.31,6.57,2.18,8.49,8.43,4.62,15-9.24,52.43,1.17,66.22,36.06,3.47,8.76,8,27.31,7,28.36-.3.31-4-2.89-8.21-7.1-7.41-7.41-10.89-9.13-12.66-6.27-4.14,6.71-25.38-12.41-39.67-12.41-3.82,0-6.51,2.38-6.51,5.76,0,4.38-8.27,4.2-8.27,10.18,0,3.68,5.9,16.36,9.11,19.56,2.47,2.48,2.44,5.09-.1,7.2-3.71,3.08-3.75,6.92-.14,16.36,2.36,6.17,5,10.5,7.86,12.71,8.8,6.91,14.67,13.48,17.27,19.34,1.53,3.46,1.43,3.56-3.08,3.4-3.81-.13-6.16-1.71-12.76-8.55-10.59-11-20.92-14.69-20.92-7.48,0,3.69-5.52,8.05-5.52,12.73,0,4.85,3.58,21,5.42,24.41,1.74,3.27,1,5.7-1.83,5.7-1,0-2.47-3.27-3.46-7.92-3.41-16-5.58-20.74-12.13-26.51-12.12-10.66-23.5-13.7-39.14-10.44C749.18,355.89,730,368.53,722.58,387.15Zm-.46-41c5.51-13.24,5.29-47.08,15.29-50.92,3.57-1.37,4.05,1.27,3.14,17.26-.94,16.31-1.08,16.67-12,30.21C723.74,348.67,720.3,350.51,722.12,346.14Zm33.8-97.76c.05-6.48.11-6.58,2-3.23,4.16,7.28,1.38,21.2-5.05,25.25-4.69,3-16.31,3.64-21.33,1.26-7.43-3.52-9.94-16.74-4.2-22.13,3.81-3.59,14.76-4.22,17.42-1s1.14,8.14-3.12,10.17C728.34,265.06,755.74,274.35,755.92,248.38ZM745,282c16.59-9.16,23.08-10.27,23.25-34,1.89,0,17.65,0,18.93-.11,2.64-.27,1.58,3.3-2,6.68-10.88,10.29-18.23,27.1-18.39,42.09-.11,9.85-2.26,14.8-10,22.95-6.91,7.29-9.79,10.07-8.44,1.67.59-3.66,2.49-32.56-1.7-36.75C745.51,283.23,744.75,282.12,745,282Zm46,23.85c-1.62,0-.55-4.64,1.86-8.06,3.8-5.41,10.34-26.58,14.76-32.66,3.64-5,13.7-12.25,15.5-11.14s-2.22,19.64-6,27.09C809.74,295.79,792.44,305.81,791.06,305.81Zm18.48,16.7c-7.89,3.7-14.9,4-25.75.95-9.86-2.74-12.49-5.28-7.58-7.33C782.11,313.67,831.24,312.33,809.54,322.51Zm-34.76-16.24c-1-1.58,1.56-21.42,1.7-25.35,0-1.37,19.4-39.14,19.37-17.42C795.83,283,777.1,310.08,774.78,306.27Zm-3.71-91.95c7.14,6.77,10.65,8.66,16.17,8.72,15.25.17-13.79,13.67-29.09-2.09-8.88-9.14-9.83-22.86-2.74-39.79,9.66-23.09,30.31-34.38,66.26-36.24,21-1.08,38.43,3.48,21.15,5.52a47.49,47.49,0,0,0-12.75,3.74c-8.46,4.18-20.34,4.53-29.1,7.15-6.3,1.89-16.75,10.73-19.8,16.77-4.69,9.24-15.64,12.79-15.64,26.33C765.53,208.06,766.73,210.22,771.07,214.32Zm80,2.91c-.74-7.24,37.33,4.23,42.34,29.59.72,3.63,1.24,6.57,1.16,6.54-2.4-1-19.24-22.72-41.13-25.37-19.56-2.37-18.35-2.59-14.85-3.61a37.69,37.69,0,0,1,7.92-1.15C850.91,223.09,851.58,222.2,851.08,217.23Zm69.45,78.61c3.78,7.36,3.91,8.27,3.7,26.86-.15,13.35-1.33,16.21-4.36,10.57-1.15-2.17-2.37-2.68-4.89-2-5.05,1.27-6.46-3.8-4.52-16.2,2.2-14-1-30-10.37-51.07-3.59-8.12-3.1-9.84,1.37-4.84s32.65,15,19.92,15C916.08,274.1,915.61,286.25,920.53,295.84ZM790.8,421.62c5.46,0,17.47-3.88,17.47-5.64,0-.69,1.32-1.25,2.93-1.25,2.61,0,2.85.56,2.14,5-3.11,19.1-26.65,24.39-43.23,13.93-6.38-4-8.8-7.43-11.94-16.73-2.78-8.23-2.85-12.18-.33-19.4,2.15-6.2,4.07-6.2,4.39,0C762.88,410.08,776.55,421.62,790.8,421.62Zm121-41.76c12.49-13.37,18.14-48.16,20.2-66.47.37,24.94,1.21,34.73-8.88,58.94-3.4,8.16-6.58,14.74-7.07,14.64s-2.29-.46-4-.79C908.16,385.44,908.09,383.78,911.76,379.86ZM902,227.57c0-.95.33-1.72.76-1.72,1.67,0,7,3.34,11.33,7.09,5.48,4.77,4.57,4.77-4.86,0C905.3,230.94,902.05,228.52,902,227.57ZM908.3,89.38c5.26-2.25,10.35-4.1,11.29-4.12,2.36-.05,2.18,3.38-.27,5.42-1.1.91-2.73,3.89-3.64,6.63-2.4,7.29-13.32,15.28-16.95,22.93-4.06,8.55.48,14.26,5.95,7.49,5.05-6.23,9.39-.27,2.21,10.69-2.82,4.3-2.83,20,0,25.46,5.6,10.84-5.46-2.78-9.24-10.25-5.24-10.34-10.79-14.28-10.79-32.9C886.85,104.75,892.86,96,908.3,89.38ZM741.8,185.87c.61,0,1.93-3.77,3-8.37,3.64-16.39,13.94-27.27,36.89-38.95,6.93-3.53,24.88-6.42,41.1-6.62,29.78-.38,61.35,12.87,61.35,17,0,1.77-2.09.05-13.8-2.21-4.94-1-10.33-2.45-12-3.33-5.69-3-24.8-6.82-31.59-6.25-45,3.81-57.51,7.55-82.24,45.09-.29,24.4-.75,26.94,2.85,34.27,19.42,39.41,68.09,10.69,54.64-12.25-1.87-3.19-4.78-6.77-6.45-7.94-3.88-2.72-13.95-2.79-16.17-.12-2.6,3.13-.33,5,5.61,4.66,10.65-.63,14.85,10.08,5.48,14-18.7,7.75-27.12-24.58-1.19-25,26.94-.39,34.56,32.87,6.6,47.16-7.06,3.61-22.05,4.24-31,1.29-4.3-1.42-5.42-1.33-7.54.59-2.33,2.11-2.6,2-4.37-2.28-3-7.12.19-6.42-4.55-11.16-1.86-1.86-4.35-6.67-5.55-10.69C740.65,207.22,739.85,185.87,741.8,185.87ZM773.73,64c9.07,5.36,13.63,25,9.12,39.28-7.07,22.33-33.56,35.85-44.73,49.47-1.56,1.89-2.85,2.79-2.88,2-.3-9.64,57.37-49.65,36.43-85.38C767.67,62.56,767,60.06,773.73,64Zm-9.58,17.48c0-13.68,11.57-6.92,3.37,16.34-2.36,6.67-12.23,22.17-13.39,21-.5-.5.08-3.15,1.28-5.9C759.73,103.06,764.15,87.17,764.15,81.51ZM735.58,64.43c1.26,12.9,1.07,16.66-1.62,32.47-9.34,54.82,2-28.74-4.11-46.25C727.23,43.12,732.9,36.8,735.58,64.43Zm1.85-21.16c-3.54-6.82.43-8.45,8.54-3.5,9.45,5.76,11.45,18.58,11.7,28.69.4,15.84-3.93,30.23-9.93,44.64a224.67,224.67,0,0,1-15.39,30.66c-1,1.65-3.83,7.64-6.29,7.64s-2.51-.08,2.24-10.56C742.32,109.92,749.08,65.72,737.43,43.27Zm-11.07,172.2c1.2,5.82,2,10.7,1.72,10.83-.61.32-8.54,5.89-9.1,6.28-2.42-15.14-1.81-77.05-.43-77.05s9.51,7.68,11.41,9.42l-2.9,12.35C723.6,192.08,723.42,201.29,726.36,215.47Zm1.85-88.2c-.56,1.55-3,9-4.35,9C720.31,136.23,726.47,129.36,728.21,127.27ZM703.32,54c2.15-18.57,6.33-32.54,9.54-31.92,13.71,2.64,14.6,113.7,1.41,115.26-8,.95-3.54-10.41-6.49-16-.67-1.28-2.33-13.71-3.68-27.62C702,72.07,701.89,66.3,703.32,54Zm.51,107a26.7,26.7,0,0,1,5.26-2.73c.44,0,.84,17.36.9,38.59.12,45.84.13,42.22-9.59,31.88l2.25-11.46C711.8,170.77,690.83,169,703.83,161Zm1.94-20.13c-.71,1.91-6.46-10.93-6.31-14.09C699.61,123.88,706.55,138.81,705.77,140.9ZM691,52.28c4.73-32.76,2.33,27.89,5.46,49.17,1,7,1.5,13.16,1,13.64-1.43,1.43-3.1-5.22-5.77-23C689.46,76.87,689.24,64.64,691,52.28Zm-15.15-2.6c5-9.54,7.36-12.71,9.64-12.71,1.09,0,1.36.88.74,2.41-9.3,22.87.3,84.32,14.1,105,5.4,8.07,3.48,13.8-3.67.6-6.14-11.34-3.22-10.13-7-13.54-1.9-1.73-2.28-3.56-3.38-5.68a53.2,53.2,0,0,1-4.25-9.69c-2.71-9.09-6-18.2-8.2-27.37a104.91,104.91,0,0,1-2-19.69C671.78,59,672.27,56.61,675.88,49.68ZM664.34,71.89c.34,11,4,21.81,8.09,32.09,1.85,4.62,4.78,9.74,5.64,14.59.89,5-4.47-.86-5.72-2.33-6.65-7.85-8.75-12.91-11.16-27C656.55,62.09,663.82,54.86,664.34,71.89Zm22.49,76.75c-3.19-4.55-6.21-8.27-6.71-8.27-2.21,0-23.46-22-26.42-27.31-1.81-3.27-4.59-8.32-6.18-11.22-5.78-10.6-3.7-29.15,4.37-39a28,28,0,0,0,3.71-5.52c.7-2,3.86-1.73-.31,5-4.58,7.41-2.29,19.37-.85,27.36a79.16,79.16,0,0,0,3.43,13.49c4.51,12.19,13.54,21.77,21.91,31.4,3.68,4.24,7.4,8.49,10.75,13,1.71,2.31,4.68,5.67,4.68,8.76C695.21,158.81,691.65,155.52,686.83,148.64ZM694,196.55c-.26-20.39,7.72-10.37,1.85,16.2-4.2,19-4.19,19.23.59,22.64,6.46,4.6,11.6,15.27,15.18,15.27,2.58,0,7-4,7-6.4,0-2.13,7.07-8,12.8-10.54,8.6-3.89,5.54-8.7,9.43-2.8s3.31,7.33-2.84,7.33c-11.25,0-19.09,6.09-20.57,16-4.77,31.9,33.85,24.59,21.66,30-7.21,3.18-12.13,15.41-14.45,8.16-2.83-8.88-10.28-23.91-12.2-24.65-4.42-1.69-8.92,6-6.93-1.4,1.69-6.27.81-13-2.22-16.89s-12.5-9.8-15.74-9.8c-2.65,0-2.57-2.63.23-8.25C691.3,224.41,694.13,208.4,694,196.55ZM573.9,135c6.8-3.53,58.66-8.12,80.16,7,2,1.42,4.21,2.57,4.88,2.57,1.5,0,14,13,17.83,18.62,30.58,44.37-16.26,82.78.65,100.78,3.53,3.76,9.67,4.38,12.28,1.24,3.67-4.43-8.28-2.35-8.28-10.39,0-3.22.82-4.47,3.63-5.53,12-4.57,19.72,10.44,10,19.5-4.55,4.25-5.72,4.45-14.23,2.46-6.87-1.61-8.67-3.16-12-10.32-2.58-5.5-2.61-6.18-.55-12.25,1.2-3.53,1.83-7,1.39-7.7-1-1.62-8.49-1.68-9.47-.08-1.15,1.85-35.76,9.59-45.42-19.66-2.19-6.65-2.18-6.83,1.39-13.38,5.07-9.32,12.58-14,22.7-14.2,6.62-.12,8.47.41,11.57,3.3,5.33,5,6.43,7.69,5.39,13.23-1.29,6.88-5.33,10.21-12.4,10.21-14.58,0-13-11.67-6.82-13.21,12.43-3.12,2.34-14.8-8.37-2.36-6.19,7.2-3.59,18.63,6,26.57,21.25,17.52,69.47-16.22,35.68-64.65-5.44-7.8-9.09-11.39-15.4-15.17-19.12-11.44-47.45-16.4-67.56-11.83-23.26,5.28-32.07,3.44-44.19,10.38-8.9,5.09-11.73,4.28-4.79-1.39C545.21,142.79,569.29,137.35,573.9,135Zm-56.27-3c.37-6.49.81-7.47,3.52-7.86,3.26-.46,3.54.22,3.15,7.54-.52,9.61,5.58,6.35,6.52-3.49.63-6.59.32-7.5-5-14.41-3.13-4-5.69-8.27-5.69-9.37,0-2.4-5.52-13.17-5.52-13.21,0-.21,1.82-.39,4-.39,5.42,0,11.82,5.63,15.39,13.55,2.51,5.56,2.81,8.22,2.21,19.53-.67,12.51-1,13.61-7.17,24.48-13,22.87-6.19,5.4-9.89-4C518.06,141.51,517.39,136.13,517.63,131.93ZM471.05,292.27c4.11-69.25,41-122.59,41.55-121.21,1.51,3.93,4.27,2.83,14.58-5.83,18.19-15.27,31.89-18.82,24.53-6.36-3.78,6.42-1.53,7.47,8,3.71,7.13-2.81,28.48-6.36,30.54-5.09,1.9,1.17,0,15.06-2.4,17.87-11.86,13.7-38.78,8.76-38.78,17.5,0,3.22,1.42,4.11,4.17,2.64,1.34-.72,5.9-1.71,10.14-2.21,6.51-.76,7.83-.54,8.6,1.45.64,1.68-.61,3.63-4.33,6.74-8.35,7-10.4,7.72-21.41,7.77-13,.07-21.38,3.87-31.1,14.2-13.85,14.71-22.26,30-16.52,30,3.3,0,13.19-12.93,12.35-16.14-1.35-5.17,20.28-20.11,21.35-16.88,1.73,5.18-19.09,13.31-19.09,15.44,0,1.79,5.47,1.13,8.81-1.06,3.52-2.31,7.73-1.46,7.73,1.56,0,1-.56,1.92-1.25,1.92s-3.2,4.19-5.6,9.3c-4.8,10.28-8.83,15.13-17.63,21.24-25.56,17.73-19.18,34.09-11.61,21.26,3.44-5.83,9.05-9.69,12.28-8.44,2,.77,1.48,1.7-3.4,5.75-36.51,30.33,5.15,100.73,5.15,102.11,0,5.61-20.37-20.21-25.87-54-6.61-40.61,2.67-122,60.89-152.34,13.48-7,16.55-9.68,13.39-11.62-1.75-1.09-19.67,6.55-26.65,11.35-42.79,29.47-58.91,90.48-54.91,140.89.81,10.24,1.79,20.17,2.18,22.06C478.08,352.4,468.74,331.17,471.05,292.27Zm9.76,71.79c-2.93-9.41-4.16-11.37-2.2-11.37.84,0,1.53,1.25,1.53,2.77,0,5.39,5.51,11.93,5.51,15.13C485.65,372,484.14,374.78,480.81,364.06ZM96.1,386.46a97.12,97.12,0,0,1,3.16-15.54c7-24.17,23.2-46.72,44.89-58.74,4.68-2.59,21.74-14.3,38.19-17.26,57.19-10.31,78.39-1.28,114.43,9.53,53.44,16,98.65,45.48,88.59,45.48-3.43,0-2.61-1.63-30-15.79-28.18-14.58-58.67-26.42-89.55-33.65-18.14-4.24-37.8-8.34-56.52-6.45a140.9,140.9,0,0,0-41.39,10.65c-12.21,5.25-27.44,12.57-35.87,23.17-4.84,6.09-27.9,27.62-30,67.56-.23,4.31-1,6.31-2.47,6.59a4,4,0,0,1-3.1-.56C93.75,398.75,95.72,389.68,96.1,386.46Zm287.53-24.71c0,6.83-14.27-7.68-8.46-7.68C377.36,354.07,383.63,359.76,383.63,361.75ZM40.44,454.65c-1.12,9.52-3.32,12.77-8.26,12.19-2.78-.32-3.67-1.28-4-4.37-.67-5.89,2.52-5.11,2.52-10.1,0-9.72-20.68,5.49-11,21.33,1.51,2.48,2.75,5.12,2.75,5.86,0,1.61-3.73,1.62-7.68,0-8.57-3.46-10.46-21-3.46-32.05,7.56-11.91,21.82-16.87,30.57-10.64C50.41,443,42.18,439.93,40.44,454.65Zm116.83-26.14c.62,0,2.52,1.6,4.22,3.56,4.27,4.91,11.6,7.67,20.35,7.67,9,0,9.13.87,3.07,4.33-4.46,2.53-18.24,4.33-21.87,2.85-5.13-2.09-6.9-5.09-6.9-11.73C156.14,431.52,156.65,428.51,157.27,428.51ZM195,404.91c-10.63-9.33,3.37-5.3,10.84,1.33,14.38,12.76,4.11,44.63-18,50.92-13.65,3.89-23.75-1-16.4-1.05,4.7,0,12.05-2.57,16.62-5.75,6.07-4.22,12.18-14.68,12.29-21.05a30.79,30.79,0,0,1,1.16-8.33C203.16,416.76,200.22,409.46,195,404.91Zm-54,24.47c0-6.94,1.48-10.69,3.95-10.22,1.74.33,2.43,2.87,3.16,11.57,1.63,19.64,9.29,30.49,23.84,33.74,37.15,8.31,64.33-41,39.13-64.48-4.29-4-14.7-8.63-19.48-8.67-11.8-.09-26.59,13.18-24.84,22.31,1.27,6.66,8.69,5.93,8.69-.86s8.8-8.67,14.53-2.93c3.66,3.65,4.57,11.13,2,16-4.66,8.71-25.11,10.15-28.75-6.81-8.64-40.31,62.81-45.59,62.51,10.87-.24,45.63-65.72,55.07-89.32,30.44-10.29-10.74-13.22-18.25-14.39-37-.86-13.85-1.36-16.26-3.43-16.65-1.91-.37-2.41.5-2.41,4.26,0,8.56-6.63,15.52,3.46,37.86,4.59,10.15,17.51,22.68,27,26.18l9.53,3.52c3.94,1.47-4.79.76-11.88-1-9.26-2.25-18.45-7.11-37.75-20C85.44,443.53,81.59,442,68,441.87c-10-.07-10.77-.26-8.19-2.07,3.62-2.53,1.25-4.34-5.75-4.37-14.69-.06-16.88-18.42,8-11.69,9,2.42,10.6,2.13,10.63-1.87.05-6,12.46,2.83,22.11,15.65,6.25,8.3,11.54,12.94,14.83,13,4.51.09,4.18-4-.91-11.69-7.26-10.94-3.44-10-7.74-16.52-6.22-9.39-.48-17.53,2.92-6.2,1.16,3.87,2.41,5.51,4.22,5.51,5.59,0-1.28-22.23,6.58-34.45.86-1.33,3.77-2.1,8.34-2.19,9.59-.2,10.25,1.32,9.2,21.4C130.1,447.81,141,436.8,141,429.38ZM243,356.3c0,5.75-1.34,5.88-5.31.51-17.38-23.51-61.88-12.25-70.87-4.41-6.23,5.43-5.44-4.11,22.81-13.64S243,343.61,243,356.3Zm51-17.92c-34.24-13.23-76.52-14.57-93.75-10.09-25.54,6.63-45.65,20-59.09,39.21-4.13,5.91-7.83,5-13.71,7.35-5.58,2.26-6-2.59-10.55.71-2.79,2-6.86,2.68-5.81.91,4.72-8,10.9-44.85,57.45-64.46,11.5-4.84,19.12-10.34,52.47-10.34,25,0,30.07,5.23,59.34,10.3,12.36,2.15,44.82,16.28,46.74,17.27,14.26,7.38,22.15,11,23.8,11,3.18,0,24.46,13.58,7.92,9.17-11.6-3.1-8.4,4-19.53-1.33C327.38,342.42,317.32,347.39,294,338.38ZM457.9,445.93c-2.56-1-11.84-2.3-20.63-2.8-14.44-.83-17.3-.57-29.81,2.65-27,7-50.21,20.83-46.68,6.75.82-3.23,2.54-4.34,13.54-8.67,3.67-1.45,5.36-5.69,2.27-5.69-4.33,0-21.37,4.9-22.3,6.41-.59,1-4.21,3.33-8,5.25-11,5.53-27.42,4.51-27.42-1.69,0-1.75-6.33-4.46-10.41-4.46s-4.15-.78-.76-6.35c3.19-5.23,9.59-9.31,21.06-13.42,10.58-3.78,11.55-6.79,2.52-7.81-6-.68-6.1-.76-2.95-2.55,1.79-1,8.48-2.32,14.86-2.9,12.4-1.13,13.66-1.6,12.49-4.65-1-2.7-26.43-8.39-58.67,6.86-35.77,16.92,25.66-35,103.89-2.43,8.12,3.39,35.34,17.26,36,18.36,1.6,2.6-.77,2.57-11.39-.13-8.14-2.08-39.5-7-67.37-.88-11.12,2.44-26.88,9.81-26.88,12.57,0,2.61,4.65,2.47,10-.31,6.2-3.2,17.14-5.51,35.62-7.52,24.12-2.62,22.22.31,50.18,3.66,19.72,2.38,36.53,6.91,36.53,9.85C463.59,448.24,463.59,448.24,457.9,445.93ZM669.18,465.8c-3.32,1.59-12.32,4.94-20,7.45-29.5,9.64-40.15,3.76-51.33,3.6-13.46-.19-49-11.3-72.35-22.65-50.8-24.65-102.09-76-113.57-130.81-.55-2.64-1.65-3.79-3.61-3.79-2.56,0-2.73.58-1.9,6.55,2.46,17.71,6.65,22.47,9,30.33,1,3.22,2.21,5.86,2.77,5.86,2,0,8.19,12.3,8.19,16.36,0,4.5,2.42,7.09,4.1,4.37.69-1.12,2.1.08,4.25,3.62,11.65,19.16,45.6,53.12,84.37,72.12,2.68,1.31,14.21,5.46,14.55,9.08-.06-.67-7.07-2.74-8.07-3.12-8.3-3.13-16.88-5.81-24.75-10-9.83-5.21-19.32-11-28.93-16.62-25.26-14.71-51.26-28.71-79.26-37.5-19.42-6.09-39.91-9.64-60.3-8C316.72,394,299,399,290.46,404.58c-6.35,4.17-8.1-1.33,4.24-7.38,9.68-4.75,9.82-8,.33-8-9.17,0-8.53-2.08-1.07-5.85,4.8-2.41,8.5-3.1,16.81-3.1,5.86,0,11-.57,11.44-1.27,1.08-1.74-2.77-5.33-8.11-7.56-9.21-3.85-13.51-14.18-7.33-17.61,3.67-2,24.29-1.86,26.38.23a6.38,6.38,0,0,0,4,1.4c3.54,0,10.12,3.51,18.39,9.81,3.86,2.94,7.7,5.35,8.54,5.35,7.07,0-5.22-11.45-5.22-14.07,0-3.57,7.6,2,20,14.55,20.95,21.26,26.48,25.38,30.92,23s3.41-6.3-3.21-12.75c-17.9-17.47-15.68-34.85-4.4-17.23,5.35,8.37,8.34,11.25,10.4,10,2.51-1.55,1.57-5-3.14-11.58-7-9.81-9.88-21.41-9.89-40.43,0-31,4.81-13.54,9.95-15.51,7.38-2.84,7.73-2.63,14.38,8.49,10.86,18.15,11,35.23,16,45.19,4.74,9.37,12.77,16.58,12.67,11.39A109.28,109.28,0,0,0,450,360.27c-4-15.13-1.68-23.93,5-19.25,2.8,2,3.95,6.48,5.76,22.7,1.77,16,12,39.38,22.63,51.77,13.81,16.11,27.13,16.8,15.61.8a52.47,52.47,0,0,1-10-24.68c-1.2-9,.92-10.33,7.1-4.34,15.14,14.68,15.35,41.8,41.77,59.72,16,10.8,18.42,6.62,23.76,1.28-34.88-30-36-32.68-35.9-46.64l6,6.55c11,12,9.22,1.33,16.6,13.1,2.25,3.6,4.51,7.51,5,8.69,1.69,4,22.32,22.16,28.89,25.49,19.44,9.85,35.13,12.94,53.06,10.43,33.57-4.7,57-17.55,59.71-51.9,1.12-14-.37-14.19-1.8-21.32-.82-4.07-10-16.55-15.51-21.17-4.52-3.77-10.72-5.94-20.54-7.19-5.85-.74-8.11-.31-13.78,2.58-22.47,11.46-15.31,29.51-8.63,34.46,5,3.7,8.61,2.36,6.45-2.39-1.94-4.25.33-7.67,5.09-7.67,5.3,0,7.33,1.42,8.92,6.24,1.21,3.67,1.1,5.44-.53,8.6-2.7,5.22-4.45,6.46-12,8.5-5.71,1.55-6.93,1.42-12.79-1.34-21.35-10-16-45.15,7.4-52.17,8.9-2.66,26-2.11,33.47,1.09C720.78,383.64,701.56,450.37,669.18,465.8Zm63.26.63c-3.58.78-4.14,1.52-4.14,5.45,0,2.51-.78,5.16-1.72,5.91-2.8,2.21-26.9,5.82-29.1-5.2-1.17-5.83-6.4-4.47-6.4-7.63,0-3.62,3.62-2,8.1,3.54,4.12,5.12,4.93,5.51,11.4,5.51,7.82,0,14.31-3.61,16.4-9.12.94-2.46,2.3-3.29,5.42-3.29C737.92,461.6,738,465.22,732.44,466.43Zm420.3-33.74c4.13-5.48,4.56-6.87,3.9-12.45-.41-3.46-.94-7.12-1.19-8.14-1.17-4.89,3.35-2.12,9.68,5.92,7.56,9.63,8.25,11.37,9,22.9.83,12.23-2.8,18.25-14.63,24.27-22.7,11.56,15.72-12.78,3.59-24.92-3.15-3.15-4.67-2.19-8.85,5.56-4.26,7.92-7.59,9.34-9.59,4.09C1143.18,446,1144,444.33,1152.74,432.69Zm-8.25-19.29c3.92,5.3,1.76,5.17-7.13-.44-19.63-12.39-37.71-11.33-46.59-11.33-19.75,0-26.07,1.52-26.07,6.26,0,2.1,1.58,2.27,15.51,1.69,30.22-1.26,22.29,5.66,20.16,4.35-2.49-1.54-8.09.76-8.09,3.33,0,1.66,2.62,3.74,7.92,6.28,11.85,5.68,18.29,12.18,20.39,20.57.89,3.5.72,3.65-3.16,2.88-9-1.79-3.81,7.73-16.63,7.72-5.29,0-7.72-.94-13.44-5.17-29.14-21.54-44.46-11-24.31-3.75,6.55,2.36,12.15,7.81,10.6,10.31-1.07,1.74-7.22,1.61-11.71-.24-1.89-.78-8.41-3.82-14.47-6.76-14.7-7.12-20.13-7-29.5-9.84-7.34-2.22-33.83,1.14-30.48-.91,6.6-4.05,75.79-13.68,104.35.11,3.52,1.7,7.81.47,7-2-.95-2.89-9.09-7.66-17.34-10.15-6.23-1.89-13.33-2.38-34.71-2.41-24.67,0-28.19.28-42.74,3.77-8.72,2.1-17.28,4.39-19,5.1-7.72,3.13-12.58-.2-2-2.1,19-3.43,68.57-42.09,118.36-35.12C1118.78,398,1139.39,406.51,1144.49,413.4Zm-2.26-10.59c-1.28.79-5.84-2.36-5.84-4C1136.39,396.58,1144.75,401.25,1142.23,402.81Zm-4.83-16.6c-1.33,4-14.53.09-7.87,7.19,3.58,3.8,1.62,4.55-3.36,1.29-7.4-4.85-29.2-9.05-38.72-7.47-10.46,1.74-19.84.77-24.41,2.54-6.62,2.55-33.5,8.12-77.81,34.76C916,466.21,895.7,467,881.75,474.42c-4.82,2.57-7.31,3-7.31,1.21,0-1.15,4.5-3.34,23.31-11.35,72-30.65,120.29-100,121.89-139.17.33-8.16-3.19-8.6-5.48-.69-9.88,34.08-21.62,52.66-23,53.77,0,0-19.08,26.46-35.29,41.08-16.89,15.22-37.61,29.38-58.4,38.62-15.06,6.69-31,9.22-46.44,14.59-9.47,3.29-18.11,3.61-28.25,3.76-19.21.28-29.65-.83-42.74-4.55-8.88-2.52-16.8-8.2-25.08-12.12-28.63-13.56-34.17-51-20.62-77.24,3.51-6.81,12-14.05,22-18.7,8.71-4.07,10.21-4.34,20.68-3.76,19.27,1.06,28.87,8.2,34.7,25.8,2.11,6.38,2.23,8.2.74,12.41-4.67,13.3-17.61,18.17-32.06,12.07-5-2.1-10.06-11.61-8.83-16.51,1.59-6.34,6.29-9.58,12.47-8.61a30,30,0,0,1,6.55,1.57c2.08,1.28,1.24,5.58-1.59,8.14-3.4,3.07-3.58,7.2-.34,7.91,10.9,2.39,26.44-13,10.44-29.58-7.63-7.88-11.9-9.69-22.55-9.6-17.19.17-36.57,12.62-41.52,26.66-8.42,23.91,4.34,40.86,4.34,44.47,0,2.19,10.56,12.76,17.53,17.56,13.84,9.52,34.24,13.3,50.68,12.12,1.69-.12,3.37-.29,5.06-.46,6.12-.63,12.37-.64,18.15-2.86,14.18-5.45,25.38-11.13,36.08-22,17.89-18.13,18.36-27.14,23.1-26.62,2,.21,4.06-1.63,7.09-6.18,3.82-5.75,8.32-9.26,9.88-7.7.31.3-.1,2.92-.9,5.82-4.54,16.41-44.31,40.17-33.6,49.06,3.6,3,12.64-2.37,26.39-15.61,29-27.91,17.08-41.68,34-55.25,4.16-3.35,5.71-3.91,7.58-2.73,9.24,5.81-7.31,30.05-14.18,37.71-11.12,12.4,2.42,28.94,35.48-29a52.07,52.07,0,0,0,6.4-22.68C969,349.41,979,340,980.81,341.1s1.27,14.4-.79,20.17c-1.44,4-1.48,5.64-.17,7.42,5.76,7.88,16.25-31,18.85-39.57,2.42-8,13.95-23.92,17.73-24.47,7.91-1.15,13.05-13.69,12.83,17.7-.13,17.69-2.18,25.17-10.88,39.62-4.76,7.89-5.43,11.38-2.4,12.39,1.47.49,5.89-3.75,14.67-14.09,9.49-11.17,3.38,12.25-10.83,25.31-8.53,7.84-9.52,10.14-6.17,14.26,2.35,2.9,2.33,6.94,23.8-14.62,23-23.12,39.76-26.82,31-19.68-7.63,6.25-3.24,12.37,9.08,3,38.43-29.35,62.91-3.55,36.56,3.54-5.05,1.36-8.12,4.5-6.24,6.38S1139.38,380.21,1137.4,386.21Zm-249,51c1-2.64,11.08-13.11,11.88-12.31C901.28,425.94,887.68,439.08,888.37,437.22Zm230.79-90.71c-29.79.47-24.72,6.8-38.23,6.48-12.45-.28-29.71,11.39-39.94,17.88,4.2-19.48.28-13.86,67.65-45.41,19.24-9,115.24-34.45,167.75-3,8.73,5.23,24.91,20.8,26.28,25.28.48,1.58,2.93,5.77,5.45,9.3,11.75,16.54,15.44,35.6,4.92,24.35-8.33-8.91-6.4,2.58-14.4-3.38-3.08-2.29-10-11.33-14.19-18.64-6.73-11.63-40.93-36.91-89.46-31.62C1153.83,332.24,1148.29,346.05,1119.16,346.51Zm165.27,30.07c-7.42-12.73-22.43-25.28-36.36-30.42-8.9-3.28-12.3-3.8-24.36-3.71-13.42.1-14.35.31-21.89,4.83-4.33,2.59-9.19,6.73-10.8,9.18-4.29,6.54-6.93,5.94-6-1.36,3.71-28.21,65.43-23.84,92.32,3.65,11.55,11.82,14.81,16.66,14.81,22C1292.19,387.1,1289.82,385.82,1284.43,376.58Zm-44,75.11c4.95,3.4,16.68,6,21.6,4.83,2.71-.66,3-.47,1.6,1-1.09,1.17-6.08,2-13.79,2.31-11.12.44-12.61.18-18.92-3.36-15.7-8.83-14.67-20.07-14.68-25.13,0-9.49.29-10.6,5.21-17.74,6.25-9.07,8.35-11.3,10.67-11.3s.74,11.56-2.59,20.68c-1.25,3.41-2,7.83-1.57,9.83C1229,438.47,1235.58,448.4,1240.39,451.69Zm127.6-19c-4,0-8.25,2.46-8.25,4.78,0,2,1.64,2.71,10,4.13,4.36.74,11.27,3.91-11.84,2.68-15.21-.8-15.55-.75-23.7,3.38-25.75,13.07-32.44,25.58-53.77,29.22,16-8.13,27.15-22.87,30.67-30.9,2.59-5.94,2.28-26.33-.45-29.06-3.68-3.68-4.72-1.11-4.72,11.67,0,54.25-88.85,65.49-103.52,11.17-2.6-9.6-2.16-12.18,4.77-28.3,9.18-21.34,46.61-27.53,55.93-9.26,3.78,7.41,3.58,10.31-1,15.49-3.18,3.56-4.93,4.35-9.63,4.35-7,0-9.43-1.85-11.57-9-1.48-4.94-1.38-5.72,1-7.43,2.8-2,7-1.33,10,1.74,5.31,5.3,9.19-1.94,1.59-8.34-11-9.22-42.71-1.73-46.09,29.76-.87,8.16-.63,9.34,3.45,16.78,18.58,33.84,68.89,31.84,68.93-10.38,0-7.89,1.78-14.92,3.76-14.9s4.52,7.43,4.52,13.36c0,5.42.3,5.93,3.48,5.93,11.94,0,.59-25.93,4.84-43.63,1.73-7.21,2-7.58,5.51-6.89,5.51,1.11,5.24-2.4,8.37-1.2,2.44.94,6.75,12.66,6.75,18.36,0,12.28,7.13,8.65,7.87,5.79,1.1-4.2,4.54-3.41,4.52,1s-3.43,14.76-6.25,18.78c-4.91,7-.12,23.39,10,7.63,12.6-19.69,27.56-24.64,30.09-20.55.47.76,3.34,1.38,6.37,1.38C1388,420.24,1377.16,432.65,1368,432.65Zm50.92,42.23c-4.5,7.29-5.75,5.87-4.71-5.35.9-9.68.79-10.18-3.4-15.94-3.52-4.84-5-5.86-8-5.51-4,.46-4,.67-2.22,13.17,1,7-1.55,8.89-7,5.3-3-2-3.44-3.25-3.44-10.19,0-7.44-2.13-13-6-15.64-.72-.49-.9-2-.39-3.29.77-2,2.06-2.26,8.27-1.53,10.15,1.19,15.68,3.78,23.3,10.87,6.44,6,6.51,6.17,6.51,14.77C1421.78,468,1421,471.46,1418.91,474.88Z"/></svg>